<svg xmlns="http://www.w3.org/2000/svg" xmlns:xlink="http://www.w3.org/1999/xlink" xmlns:lucid="lucid" width="1391" height="2309"><g transform="translate(-249 340)" lucid:page-tab-id="0_0"><path d="M0-1259.2h1870.4v3841.6H0z" fill="#fff"/><path d="M320-40h120V80H320V-40z" stroke="#000" stroke-opacity="0" fill="#d6242d"/><path d="M398.4-9.6l-17.6-10.2c-.5-.3-1.1-.3-1.6 0L361.6-9.6c-.53.3-.8.78-.8 1.4v20.32c0 .57.27 1.1.8 1.4l17.6 10.15c.5.3 1.1.3 1.6 0l17.6-10.14c.53-.3.8-.84.8-1.4V-8.26c0-.57-.3-1.05-.8-1.36zm-20 29.05L364 11.2V-5.44l14.4 8.3zM380 .1l-14.4-8.35 14.4-8.3 14.4 8.3zm16 11.1l-14.4 8.3V2.86l14.4-8.3zM418.4 40.8H412V32.8c0-.87-.72-1.58-1.6-1.58h-28.8v-4.8h-3.2v4.8h-28.8c-.88 0-1.6.7-1.6 1.58v8.03h-6.4c-.88 0-1.6.72-1.6 1.6v16c0 .9.72 1.6 1.6 1.6h16c.88 0 1.6-.7 1.6-1.6v-16c0-.88-.72-1.6-1.6-1.6h-6.4v-6.4h27.2v6.4H372c-.88 0-1.6.72-1.6 1.6v16c0 .9.72 1.6 1.6 1.6h16c.88 0 1.6-.7 1.6-1.6v-16c0-.88-.72-1.6-1.6-1.6h-6.4v-6.4h27.2v6.4h-6.4c-.88 0-1.6.72-1.6 1.6v16c0 .9.72 1.6 1.6 1.6h16c.88 0 1.6-.7 1.6-1.6v-16c0-.88-.72-1.6-1.6-1.6zM356 44v12.8h-12.8V44zm30.4 0v12.8h-12.8V44zm30.4 12.8H404V44h12.8z" stroke="#000" stroke-opacity="0" fill="#fff"/><use xlink:href="#a" transform="matrix(1,0,0,1,290,89) translate(1.4249999999999972 14.4)"/><use xlink:href="#b" transform="matrix(1,0,0,1,290,89) translate(46.724999999999994 14.4)"/><use xlink:href="#c" transform="matrix(1,0,0,1,290,89) translate(128.625 14.4)"/><path d="M360 120h1220v1460H360z" stroke="#000" stroke-width="2" fill-opacity="0"/><path d="M320-40h1300v1680H320z" stroke="#ef8d22" stroke-width="2" fill-opacity="0"/><path d="M495.28 1900.02H460v-5.5c0-13.54 8.9-24.88 22.1-28.1l.62-.16.63.3c4.2 2.27 8.84 2.27 13.1 0l.56-.3.64.17c5.97 1.46 10.63 4.26 14.7 8.78l-2.6 2.37c-3.46-3.8-7.4-6.17-12.36-7.52-4.98 2.4-10.2 2.4-15.18 0-11.26 3.07-18.74 12.86-18.74 24.47v2h31.77z" stroke="#000" stroke-opacity="0" fill="#d6242d"/><path d="M489.86 1871.67c-2.8 0-5.18-.6-7.63-1.93-7.72-4.18-10.55-13.8-6.35-21.47 4.2-7.7 13.85-10.52 21.54-6.34 7.72 4.18 10.55 13.8 6.36 21.5-1.53 2.8-3.53 4.8-6.36 6.3-2.44 1.34-4.8 1.94-7.56 1.94zm0-27.7c-4.67-.1-8.67 2.24-10.9 6.32-3.18 5.85-.98 13.17 4.9 16.36 3.8 2.03 8.03 2.03 11.85 0 4.04-2.18 6.36-6.1 6.33-10.7-.03-6.68-5.5-12.03-12.17-12zM517.22 1920l-18.78-10.8v-21.63l18.78-10.82 18.78 10.82v21.62zm-15.25-12.84l15.25 8.77 15.25-8.77v-17.6l-15.25-8.83-15.25 8.83z" stroke="#000" stroke-opacity="0" fill="#d6242d"/><path d="M517.22 1900.4l-17.9-10.3 1.76-3.03 16.14 9.27 16.14-9.27 1.76 3.04-17.9 10.3z" stroke="#000" stroke-opacity="0" fill="#d6242d"/><path d="M515.46 1898.4H519v19.58h-3.54v-19.6z" stroke="#000" stroke-opacity="0" fill="#d6242d"/><use xlink:href="#d" transform="matrix(1,0,0,1,430,1929) translate(51.5 14.4)"/><path d="M400 620h1140v240H400z" stroke="#147eba" stroke-opacity="0" stroke-width="2" fill="#147eba" fill-opacity=".13"/><path d="M400 620h56v56h-56v-56z" stroke="#000" stroke-opacity="0" fill="#147eba"/><path d="M443.38 642.18c-.15-.17-.34-.25-.56-.25h-5.15v-5.58c-.03-2.54-.96-4.7-2.84-6.4-1.9-1.84-4.15-2.75-6.77-2.75-2.65 0-4.9.83-6.8 2.62-1.9 1.7-2.87 3.87-2.9 6.4v5.66h-5.15c-.24 0-.43.1-.58.25-.16.17-.22.34-.22.6V668c0 .43.34.8.8.8h29.6c.46 0 .8-.37.8-.8v-25.28c0-.2-.06-.38-.22-.54zm-23.46-5.9c.03-2.13.8-3.88 2.37-5.3 1.6-1.5 3.52-2.2 5.73-2.2 2.22 0 4.12.75 5.7 2.25 1.54 1.4 2.32 3.2 2.32 5.32v5.58H419.9zm22.1 30.94h-28.03v-23.7h28z" stroke="#000" stroke-opacity="0" fill="#fff"/><path d="M427.2 657.3v6.25h1.6v-6.23c2.13-.4 3.62-2.2 3.63-4.35 0-2.43-1.97-4.4-4.4-4.43-2.2-.03-4.06 1.5-4.44 3.68-.42 2.4 1.2 4.68 3.6 5.1zm.82-7.15c.78 0 1.44.27 2 .82.54.56.82 1.22.8 2 .03 1.55-1.2 2.8-2.74 2.82h-.06c-1.56.1-2.92-1.06-3.04-2.62-.12-1.56 1.05-2.93 2.6-3.03.16-.02.28-.02.44 0z" stroke="#000" stroke-opacity="0" fill="#fff"/><use xlink:href="#e" transform="matrix(1,0,0,1,471,640) translate(0 14.4)"/><use xlink:href="#f" transform="matrix(1,0,0,1,471,640) translate(96.95 14.4)"/><use xlink:href="#g" transform="matrix(1,0,0,1,471,640) translate(160.95 14.4)"/><path d="M360 120h120v120H360V120z" stroke="#000" stroke-opacity="0" fill="#d6242d"/><path d="M418.32 194.43H395.9c-8.8 0-15.45-5.83-15.93-13.92v-1.1c-.24-6.93 4.16-12.98 10.9-14.82v-1.26c.23-12.1 10.16-21.65 22.25-21.44 5.92.1 11.04 2.3 15.2 6.62 2.17 2.16 3.77 4.36 5.05 7.2 1.84-1.47 3.84-2.2 6.17-2.2 4.64 0 9.6 3.3 10.4 10.72 4.17.78 7.37 2.73 10.1 5.93l-2.5 2c-2.55-2.9-5.6-4.52-9.28-5.1-.8-.1-1.36-.68-1.36-1.47-.4-6.15-4-8.88-7.36-8.88-2.25 0-4.17 1-5.45 2.8-.4.46-.97.72-1.53.62-.64-.1-1.04-.48-1.28-1.06-1.13-3.25-2.73-5.83-5.2-8.25-3.54-3.6-7.78-5.5-12.9-5.66-10.25-.26-18.82 7.88-19.14 18.18 0 .8.08 1.47.16 2.26.08.8-.4 1.53-1.2 1.74-3.6.9-9.77 3.67-9.77 12.08v.9c.4 6.4 5.7 10.93 12.8 10.93h22.43z" stroke="#000" stroke-opacity="0" fill="#fff"/><path d="M440.7 218.02c-18.97 0-19.2-21.32-19.2-21.52V177c0-.7.4-1.28 1.04-1.48l17.6-6.53c.37-.16.76-.16 1.14 0l17.6 6.52c.64.2 1.02.8 1.02 1.48v20.68c0 .2-.23 20.34-19.2 20.34zm-16-39.9v18.38c0 .74.22 18.32 16 18.32 15.8 0 16.02-16.45 16.02-17.14v-19.55l-16.02-5.95z" stroke="#000" stroke-opacity="0" fill="#fff"/><path d="M440.7 212.03c-10.17 0-12.68-12.9-12.8-13.44V181.7c0-.7.4-1.23 1.02-1.5l11.2-4.42c.38-.15.8-.15 1.17 0l11.2 4.43c.63.26 1 .8 1 1.5v16.86c-.12.53-2.63 13.43-12.8 13.43zm-9.6-13.92c.25 1.25 2.56 10.73 9.6 10.73 7.07 0 9.35-9.48 9.6-10.72v-15.3l-9.6-3.77-9.6 3.78z" stroke="#000" stroke-opacity="0" fill="#fff"/><use xlink:href="#h" transform="matrix(1,0,0,1,330,249) translate(36.05 14.4)"/><use xlink:href="#i" transform="matrix(1,0,0,1,330,249) translate(107 14.4)"/><path d="M480 129h580v122H480z" stroke="#000" stroke-opacity="0" stroke-width="2" fill="#fff" fill-opacity="0"/><use xlink:href="#j" transform="matrix(1,0,0,1,485,134) translate(0 60.94444444444444)"/><use xlink:href="#k" transform="matrix(1,0,0,1,485,134) translate(98.70370370370371 60.94444444444444)"/><use xlink:href="#l" transform="matrix(1,0,0,1,485,134) translate(170.1851851851852 60.94444444444444)"/><use xlink:href="#m" transform="matrix(1,0,0,1,485,134) translate(235.06172839506172 60.94444444444444)"/><g filter="url(#n)"><path d="M1446.2 621.7h92.1v92.1h-92.1z" stroke="#000" stroke-opacity="0" fill="#d6242d"/><path d="M1536.66 623.34v88.82h-88.82v-88.82h88.82M1540 620h-95.5v95.5h95.5V620z" stroke="#000" stroke-opacity="0" fill="#fff"/><path d="M1492.8 701.46c-24.4 0-24.7-28.64-24.7-28.9v-27.18c0-.47.3-.87.74-1.06l23.58-9.1c.24-.05.54-.05.8 0l23.57 9.1c.43.2.73.6.73 1.06v28.83c0 .28-.3 27.26-24.72 27.26zm-22.48-55.3v26.4c.2 4.83 1.1 8.94 2.92 13.45 3.7 8.76 10.28 13.2 19.57 13.2 9.26 0 15.93-4.17 19.64-12.33 1.83-4.24 2.67-8.08 2.86-12.66v-28.1l-22.5-8.6z" stroke="#000" stroke-opacity="0" fill="#fff"/><path d="M1492.8 694.7c-5.92 0-10.96-3.37-14.44-9.86-1.73-3.17-2.77-6.07-3.53-9.56v-25.5c0-.48.3-.85.72-1.06l16.83-6.7c.3-.17.58-.17.86 0l16.83 6.7c.43.2.72.58.72 1.05v25.5c-.73 3.5-1.8 6.4-3.5 9.57-3.52 6.5-8.55 9.87-14.5 9.87zm-15.7-19.74c.25 1.38 3.8 17.48 15.7 17.48 11.92 0 15.48-16.1 15.73-17.48V650.5l-15.72-6.27-15.7 6.28z" stroke="#000" stroke-opacity="0" fill="#fff"/><path d="M1491.7 643.03h2.24v50.56h-2.25z" stroke="#000" stroke-opacity="0" fill="#fff"/><use xlink:href="#o" transform="matrix(1,0,0,1,1414.5,724.5) translate(18.074999999999996 14.4)"/><use xlink:href="#c" transform="matrix(1,0,0,1,1414.5,724.5) translate(87.975 14.4)"/></g><path d="M400 900h1140v240H400z" stroke="#147eba" stroke-opacity="0" stroke-width="2" fill="#147eba" fill-opacity=".13"/><path d="M400 900h56v56h-56v-56z" stroke="#000" stroke-opacity="0" fill="#147eba"/><path d="M443.38 922.18c-.15-.17-.34-.25-.56-.25h-5.15v-5.58c-.03-2.54-.96-4.7-2.84-6.4-1.9-1.84-4.15-2.75-6.77-2.75-2.65 0-4.9.83-6.8 2.62-1.9 1.7-2.87 3.87-2.9 6.4v5.66h-5.15c-.24 0-.43.1-.58.25-.16.17-.22.34-.22.6V948c0 .43.34.8.8.8h29.6c.46 0 .8-.37.8-.8v-25.28c0-.2-.06-.38-.22-.54zm-23.46-5.9c.03-2.13.8-3.88 2.37-5.3 1.6-1.5 3.52-2.2 5.73-2.2 2.22 0 4.12.75 5.7 2.25 1.54 1.4 2.32 3.2 2.32 5.32v5.58H419.9zm22.1 30.94h-28.03v-23.7h28z" stroke="#000" stroke-opacity="0" fill="#fff"/><path d="M427.2 937.3v6.25h1.6v-6.23c2.13-.4 3.62-2.2 3.63-4.35 0-2.43-1.97-4.4-4.4-4.43-2.2-.03-4.06 1.5-4.44 3.68-.42 2.4 1.2 4.68 3.6 5.1zm.82-7.15c.78 0 1.44.27 2 .82.54.56.82 1.22.8 2 .03 1.55-1.2 2.8-2.74 2.82h-.06c-1.56.1-2.92-1.06-3.04-2.62-.12-1.56 1.05-2.93 2.6-3.03.16-.02.28-.02.44 0z" stroke="#000" stroke-opacity="0" fill="#fff"/><use xlink:href="#p" transform="matrix(1,0,0,1,471,920) translate(0 14.4)"/><use xlink:href="#q" transform="matrix(1,0,0,1,471,920) translate(51 14.4)"/><use xlink:href="#r" transform="matrix(1,0,0,1,471,920) translate(118 14.4)"/><g filter="url(#n)"><path d="M1446.2 901.7h92.1v92.1h-92.1z" stroke="#000" stroke-opacity="0" fill="#d6242d"/><path d="M1536.66 903.34v88.82h-88.82v-88.82h88.82M1540 900h-95.5v95.5h95.5V900z" stroke="#000" stroke-opacity="0" fill="#fff"/><path d="M1492.8 981.46c-24.4 0-24.7-28.64-24.7-28.9v-27.18c0-.47.3-.87.74-1.06l23.58-9.1c.24-.05.54-.05.8 0l23.57 9.1c.43.2.73.6.73 1.06v28.83c0 .28-.3 27.26-24.72 27.26zm-22.48-55.3v26.4c.2 4.83 1.1 8.94 2.92 13.45 3.7 8.76 10.28 13.2 19.57 13.2 9.26 0 15.93-4.17 19.64-12.33 1.83-4.24 2.67-8.08 2.86-12.66v-28.1l-22.5-8.6z" stroke="#000" stroke-opacity="0" fill="#fff"/><path d="M1492.8 974.7c-5.92 0-10.96-3.37-14.44-9.86-1.73-3.17-2.77-6.07-3.53-9.56v-25.5c0-.48.3-.85.72-1.06l16.83-6.7c.3-.17.58-.17.86 0l16.83 6.7c.43.2.72.58.72 1.05v25.5c-.73 3.5-1.8 6.4-3.5 9.57-3.52 6.5-8.55 9.87-14.5 9.87zm-15.7-19.74c.25 1.38 3.8 17.48 15.7 17.48 11.92 0 15.48-16.1 15.73-17.48V930.5l-15.72-6.27-15.7 6.28z" stroke="#000" stroke-opacity="0" fill="#fff"/><path d="M1491.7 923.03h2.24v50.56h-2.25z" stroke="#000" stroke-opacity="0" fill="#fff"/><use xlink:href="#o" transform="matrix(1,0,0,1,1414.5,1004.5) translate(18.074999999999996 14.4)"/><use xlink:href="#c" transform="matrix(1,0,0,1,1414.5,1004.5) translate(87.975 14.4)"/></g><path d="M360 1460h120v120H360v-120z" stroke="#000" stroke-opacity="0" fill="#693cc5"/><path d="M432.8 1553.5h-25.6c-2.65 0-4.8-2.17-4.8-4.82v-19.53c0-2.66 2.15-4.8 4.8-4.8h25.6c2.65 0 4.8 2.14 4.8 4.8v19.53c0 2.65-2.15 4.8-4.8 4.8zm-25.6-26c-.9 0-1.6.74-1.6 1.62v19.56c0 .87.7 1.6 1.6 1.6h25.6c.9 0 1.6-.73 1.6-1.6v-19.53c0-.9-.7-1.6-1.6-1.6zM431.82 1522.4h-3.2v-3.7c0-2.66-2.15-4.8-4.8-4.8h-7.67c-2.65 0-4.8 2.14-4.8 4.8v3.7h-3.2v-3.7c0-4.43 3.57-8 8-8h7.67c4.43 0 8 3.57 8 8z" stroke="#000" stroke-opacity="0" fill="#fff"/><path d="M420.05 1548c-3.32-.02-6-2.72-5.98-6.04 0-2.13 1-3.9 2.78-5.05v-3.8c0-1.8 1.45-3.25 3.26-3.25 1.8 0 3.26 1.45 3.26 3.25v3.77c2.8 1.82 3.6 5.56 1.77 8.35-1.13 1.75-2.9 2.73-4.97 2.74zm0-14.92v4.8c0 .68-.4 1.23-1 1.48-.75.3-1.26.82-1.56 1.56-.6 1.43.1 3.1 1.54 3.67 1.44.57 3.08-.14 3.67-1.57.6-1.44-.1-3.1-1.54-3.67-.62-.25-1-.82-1-1.47v-4.82zm0-.15z" stroke="#000" stroke-opacity="0" fill="#fff"/><path d="M445.07 1538.2h-5.87v-3.2h5.8c.3 0 10.88-1.1 10.88-12 0-9.2-7.6-11.5-10.8-12.06-.87-.15-1.5-.98-1.34-1.8v-.27c.55-2.9-.94-5.7-3.76-6.77-2.66-1.2-6.42-1.04-8.14 1.45-.4.5-1.02.77-1.64.62-.55-.06-1.02-.47-1.26-1.04-1-3.15-2.5-5.6-4.77-8.02-5.17-5.42-12.85-6.97-19.66-3.87-6.33 3.1-10.1 8.95-10.33 16 0 .76.08 1.4.16 2.16.16.82-.4 1.6-1.25 1.8-5.48 1.14-9.24 6.06-9 11.7v.98c.54 6.36 5.87 11.17 12.3 11.12h4.45v3.16h-4.46c-8.07.1-14.8-6-15.43-14.08v-1.2c-.3-6.66 3.84-12.5 10.18-14.42v-1.2c.24-8.37 4.7-15.35 12.3-18.98 8.06-3.57 17-1.8 23.1 4.6 2.1 2.13 3.6 4.25 4.85 6.94 3.13-1.97 6.74-2.17 10.1-.62 3.76 1.45 6.03 4.97 5.8 8.95 4.07 1.03 11.98 4.45 11.98 14.85-.16 11.12-9.32 14.8-14.18 15.2z" stroke="#000" stroke-opacity="0" fill="#fff"/><use xlink:href="#a" transform="matrix(1,0,0,1,330,1589) translate(48.875 14.4)"/><use xlink:href="#s" transform="matrix(1,0,0,1,330,1589) translate(94.175 14.4)"/><path d="M400 340h1140v240H400z" stroke="#147eba" stroke-opacity="0" stroke-width="2" fill="#147eba" fill-opacity=".13"/><path d="M400 340h56v56h-56v-56z" stroke="#000" stroke-opacity="0" fill="#147eba"/><path d="M443.38 362.18c-.15-.17-.34-.25-.56-.25h-5.15v-5.58c-.03-2.54-.96-4.7-2.84-6.4-1.9-1.84-4.15-2.75-6.77-2.75-2.65 0-4.9.83-6.8 2.62-1.9 1.7-2.87 3.87-2.9 6.4v5.66h-5.15c-.24 0-.43.1-.58.25-.16.17-.22.34-.22.6V388c0 .43.34.8.8.8h29.6c.46 0 .8-.37.8-.8v-25.28c0-.2-.06-.38-.22-.54zm-23.46-5.9c.03-2.13.8-3.88 2.37-5.3 1.6-1.5 3.52-2.2 5.73-2.2 2.22 0 4.12.75 5.7 2.25 1.54 1.4 2.32 3.2 2.32 5.32v5.58H419.9zm22.1 30.94h-28.03v-23.7h28z" stroke="#000" stroke-opacity="0" fill="#fff"/><path d="M427.2 377.3v6.25h1.6v-6.23c2.13-.4 3.62-2.2 3.63-4.35 0-2.43-1.97-4.4-4.4-4.43-2.2-.03-4.06 1.5-4.44 3.68-.42 2.4 1.2 4.68 3.6 5.1zm.82-7.15c.78 0 1.44.27 2 .82.54.56.82 1.22.8 2 .03 1.55-1.2 2.8-2.74 2.82h-.06c-1.56.1-2.92-1.06-3.04-2.62-.12-1.56 1.05-2.93 2.6-3.03.16-.02.28-.02.44 0z" stroke="#000" stroke-opacity="0" fill="#fff"/><use xlink:href="#t" transform="matrix(1,0,0,1,471,360) translate(0 14.4)"/><use xlink:href="#u" transform="matrix(1,0,0,1,471,360) translate(45 14.4)"/><use xlink:href="#f" transform="matrix(1,0,0,1,471,360) translate(126.9 14.4)"/><use xlink:href="#v" transform="matrix(1,0,0,1,471,360) translate(190.9 14.4)"/><g filter="url(#n)"><path d="M1446.2 341.7h92.1v92.1h-92.1z" stroke="#000" stroke-opacity="0" fill="#d6242d"/><path d="M1536.66 343.34v88.82h-88.82v-88.82h88.82M1540 340h-95.5v95.5h95.5V340z" stroke="#000" stroke-opacity="0" fill="#fff"/><path d="M1492.8 421.46c-24.4 0-24.7-28.64-24.7-28.9v-27.18c0-.47.3-.87.74-1.06l23.58-9.1c.24-.05.54-.05.8 0l23.57 9.1c.43.2.73.6.73 1.06v28.83c0 .28-.3 27.26-24.72 27.26zm-22.48-55.3v26.4c.2 4.83 1.1 8.94 2.92 13.45 3.7 8.76 10.28 13.2 19.57 13.2 9.26 0 15.93-4.17 19.64-12.33 1.83-4.24 2.67-8.08 2.86-12.66v-28.1l-22.5-8.6z" stroke="#000" stroke-opacity="0" fill="#fff"/><path d="M1492.8 414.7c-5.92 0-10.96-3.37-14.44-9.86-1.73-3.17-2.77-6.07-3.53-9.56v-25.5c0-.48.3-.85.72-1.06l16.83-6.7c.3-.17.58-.17.86 0l16.83 6.7c.43.2.72.58.72 1.05v25.5c-.73 3.5-1.8 6.4-3.5 9.57-3.52 6.5-8.55 9.87-14.5 9.87zm-15.7-19.74c.25 1.38 3.8 17.48 15.7 17.48 11.92 0 15.48-16.1 15.73-17.48V370.5l-15.72-6.27-15.7 6.28z" stroke="#000" stroke-opacity="0" fill="#fff"/><path d="M1491.7 363.03h2.24v50.56h-2.25z" stroke="#000" stroke-opacity="0" fill="#fff"/><use xlink:href="#o" transform="matrix(1,0,0,1,1414.5,444.5) translate(18.074999999999996 14.4)"/><use xlink:href="#c" transform="matrix(1,0,0,1,1414.5,444.5) translate(87.975 14.4)"/></g><path d="M400 1180h1140v240H400z" stroke="#147eba" stroke-opacity="0" stroke-width="2" fill="#147eba" fill-opacity=".13"/><path d="M400 1180h56v56h-56v-56z" stroke="#000" stroke-opacity="0" fill="#147eba"/><path d="M443.38 1202.18c-.15-.17-.34-.25-.56-.25h-5.15v-5.58c-.03-2.54-.96-4.7-2.84-6.4-1.9-1.84-4.15-2.75-6.77-2.75-2.65 0-4.9.83-6.8 2.62-1.9 1.7-2.87 3.87-2.9 6.4v5.66h-5.15c-.24 0-.43.1-.58.25-.16.17-.22.34-.22.6V1228c0 .43.34.8.8.8h29.6c.46 0 .8-.37.8-.8v-25.28c0-.2-.06-.38-.22-.54zm-23.46-5.9c.03-2.13.8-3.88 2.37-5.3 1.6-1.5 3.52-2.2 5.73-2.2 2.22 0 4.12.75 5.7 2.25 1.54 1.4 2.32 3.2 2.32 5.32v5.58H419.9zm22.1 30.94h-28.03v-23.7h28z" stroke="#000" stroke-opacity="0" fill="#fff"/><path d="M427.2 1217.3v6.25h1.6v-6.23c2.13-.4 3.62-2.2 3.63-4.35 0-2.43-1.97-4.4-4.4-4.43-2.2-.03-4.06 1.5-4.44 3.68-.42 2.4 1.2 4.68 3.6 5.1zm.82-7.15c.78 0 1.44.27 2 .82.54.56.82 1.22.8 2 .03 1.55-1.2 2.8-2.74 2.82h-.06c-1.56.1-2.92-1.06-3.04-2.62-.12-1.56 1.05-2.93 2.6-3.03.16-.02.28-.02.44 0z" stroke="#000" stroke-opacity="0" fill="#fff"/><use xlink:href="#w" transform="matrix(1,0,0,1,471,1200) translate(0 14.4)"/><use xlink:href="#q" transform="matrix(1,0,0,1,471,1200) translate(20 14.4)"/><use xlink:href="#x" transform="matrix(1,0,0,1,471,1200) translate(87 14.4)"/><g filter="url(#n)"><path d="M1446.2 1181.7h92.1v92.1h-92.1z" stroke="#000" stroke-opacity="0" fill="#d6242d"/><path d="M1536.66 1183.34v88.82h-88.82v-88.82h88.82m3.34-3.34h-95.5v95.5h95.5V1180z" stroke="#000" stroke-opacity="0" fill="#fff"/><path d="M1492.8 1261.46c-24.4 0-24.7-28.64-24.7-28.9v-27.18c0-.47.3-.87.74-1.06l23.58-9.1c.24-.05.54-.05.8 0l23.57 9.1c.43.2.73.6.73 1.06v28.83c0 .28-.3 27.26-24.72 27.26zm-22.48-55.3v26.4c.2 4.83 1.1 8.94 2.92 13.45 3.7 8.76 10.28 13.2 19.57 13.2 9.26 0 15.93-4.17 19.64-12.33 1.83-4.24 2.67-8.08 2.86-12.66v-28.1l-22.5-8.6z" stroke="#000" stroke-opacity="0" fill="#fff"/><path d="M1492.8 1254.7c-5.92 0-10.96-3.37-14.44-9.86-1.73-3.17-2.77-6.07-3.53-9.56v-25.5c0-.48.3-.85.72-1.06l16.83-6.7c.3-.17.58-.17.86 0l16.83 6.7c.43.2.72.58.72 1.05v25.5c-.73 3.5-1.8 6.4-3.5 9.57-3.52 6.5-8.55 9.87-14.5 9.87zm-15.7-19.74c.25 1.38 3.8 17.48 15.7 17.48 11.92 0 15.48-16.1 15.73-17.48v-24.45l-15.72-6.27-15.7 6.28z" stroke="#000" stroke-opacity="0" fill="#fff"/><path d="M1491.7 1203.03h2.24v50.56h-2.25z" stroke="#000" stroke-opacity="0" fill="#fff"/><use xlink:href="#o" transform="matrix(1,0,0,1,1414.5,1284.5) translate(18.074999999999996 14.4)"/><use xlink:href="#c" transform="matrix(1,0,0,1,1414.5,1284.5) translate(87.975 14.4)"/></g><path d="M552.18 492.18h-64.36v-64.36h64.36zm-61.02-3.34h57.68v-57.68h-57.68z" stroke="#000" stroke-opacity="0" fill="#d86613"/><path d="M497.02 420h3.33v9.48h-3.33V420zM507.47 420h3.33v9.48h-3.33V420zM517.93 420h3.34v9.48h-3.34V420zM528.4 420h3.33v9.48h-3.33V420zM538.87 420h3.33v9.48h-3.33V420zM497.02 490.52h3.33V500h-3.33v-9.48zM507.47 490.52h3.33V500h-3.33v-9.48zM517.93 490.52h3.34V500h-3.34v-9.48zM528.4 490.52h3.33V500h-3.33v-9.48zM538.87 490.52h3.33V500h-3.33v-9.48zM550.52 437.42H560v3.33h-9.48v-3.33zM550.52 447.87H560v3.33h-9.48v-3.33zM550.52 458.33H560v3.34h-9.48v-3.34zM550.52 468.8H560v3.33h-9.48v-3.33zM550.52 479.25H560v3.33h-9.48v-3.33zM480 437.42h9.48v3.33H480v-3.33zM480 447.87h9.48v3.33H480v-3.33zM480 458.33h9.48v3.34H480v-3.34zM480 468.8h9.48v3.33H480v-3.33zM480 479.25h9.48v3.33H480v-3.33z" stroke="#000" stroke-opacity="0" fill="#d86613"/><use xlink:href="#t" transform="matrix(1,0,0,1,450,509) translate(12.049999999999997 14.4)"/><use xlink:href="#y" transform="matrix(1,0,0,1,450,509) translate(57.05 14.4)"/><path d="M552.18 772.18h-64.36v-64.36h64.36zm-61.02-3.34h57.68v-57.68h-57.68z" stroke="#000" stroke-opacity="0" fill="#d86613"/><path d="M497.02 700h3.33v9.48h-3.33V700zM507.47 700h3.33v9.48h-3.33V700zM517.93 700h3.34v9.48h-3.34V700zM528.4 700h3.33v9.48h-3.33V700zM538.87 700h3.33v9.48h-3.33V700zM497.02 770.52h3.33V780h-3.33v-9.48zM507.47 770.52h3.33V780h-3.33v-9.48zM517.93 770.52h3.34V780h-3.34v-9.48zM528.4 770.52h3.33V780h-3.33v-9.48zM538.87 770.52h3.33V780h-3.33v-9.48zM550.52 717.42H560v3.33h-9.48v-3.33zM550.52 727.87H560v3.33h-9.48v-3.33zM550.52 738.33H560v3.34h-9.48v-3.34zM550.52 748.8H560v3.33h-9.48v-3.33zM550.52 759.25H560v3.33h-9.48v-3.33zM480 717.42h9.48v3.33H480v-3.33zM480 727.87h9.48v3.33H480v-3.33zM480 738.33h9.48v3.34H480v-3.34zM480 748.8h9.48v3.33H480v-3.33zM480 759.25h9.48v3.33H480v-3.33z" stroke="#000" stroke-opacity="0" fill="#d86613"/><use xlink:href="#z" transform="matrix(1,0,0,1,450,789) translate(24.025 14.4)"/><use xlink:href="#A" transform="matrix(1,0,0,1,450,789) translate(42.55 36)"/><path d="M672.18 772.18h-64.36v-64.36h64.36zm-61.02-3.34h57.68v-57.68h-57.68z" stroke="#000" stroke-opacity="0" fill="#d86613"/><path d="M617.02 700h3.33v9.48h-3.33V700zM627.47 700h3.33v9.48h-3.33V700zM637.93 700h3.34v9.48h-3.34V700zM648.4 700h3.33v9.48h-3.33V700zM658.87 700h3.33v9.48h-3.33V700zM617.02 770.52h3.33V780h-3.33v-9.48zM627.47 770.52h3.33V780h-3.33v-9.48zM637.93 770.52h3.34V780h-3.34v-9.48zM648.4 770.52h3.33V780h-3.33v-9.48zM658.87 770.52h3.33V780h-3.33v-9.48zM670.52 717.42H680v3.33h-9.48v-3.33zM670.52 727.87H680v3.33h-9.48v-3.33zM670.52 738.33H680v3.34h-9.48v-3.34zM670.52 748.8H680v3.33h-9.48v-3.33zM670.52 759.25H680v3.33h-9.48v-3.33zM600 717.42h9.48v3.33H600v-3.33zM600 727.87h9.48v3.33H600v-3.33zM600 738.33h9.48v3.34H600v-3.34zM600 748.8h9.48v3.33H600v-3.33zM600 759.25h9.48v3.33H600v-3.33z" stroke="#000" stroke-opacity="0" fill="#d86613"/><use xlink:href="#B" transform="matrix(1,0,0,1,570,789) translate(24.025 14.4)"/><use xlink:href="#C" transform="matrix(1,0,0,1,570,789) translate(48.525 36)"/><path d="M792.18 772.18h-64.36v-64.36h64.36zm-61.02-3.34h57.68v-57.68h-57.68z" stroke="#000" stroke-opacity="0" fill="#d86613"/><path d="M737.02 700h3.33v9.48h-3.33V700zM747.47 700h3.33v9.48h-3.33V700zM757.93 700h3.34v9.48h-3.34V700zM768.4 700h3.33v9.48h-3.33V700zM778.87 700h3.33v9.48h-3.33V700zM737.02 770.52h3.33V780h-3.33v-9.48zM747.47 770.52h3.33V780h-3.33v-9.48zM757.93 770.52h3.34V780h-3.34v-9.48zM768.4 770.52h3.33V780h-3.33v-9.48zM778.87 770.52h3.33V780h-3.33v-9.48zM790.52 717.42H800v3.33h-9.48v-3.33zM790.52 727.87H800v3.33h-9.48v-3.33zM790.52 738.33H800v3.34h-9.48v-3.34zM790.52 748.8H800v3.33h-9.48v-3.33zM790.52 759.25H800v3.33h-9.48v-3.33zM720 717.42h9.48v3.33H720v-3.33zM720 727.87h9.48v3.33H720v-3.33zM720 738.33h9.48v3.34H720v-3.34zM720 748.8h9.48v3.33H720v-3.33zM720 759.25h9.48v3.33H720v-3.33z" stroke="#000" stroke-opacity="0" fill="#d86613"/><use xlink:href="#B" transform="matrix(1,0,0,1,690,789) translate(24.025 14.4)"/><use xlink:href="#C" transform="matrix(1,0,0,1,690,789) translate(48.525 36)"/><path d="M912.18 772.18h-64.36v-64.36h64.36zm-61.02-3.34h57.68v-57.68h-57.68z" stroke="#000" stroke-opacity="0" fill="#d86613"/><path d="M857.02 700h3.33v9.48h-3.33V700zM867.47 700h3.33v9.48h-3.33V700zM877.93 700h3.34v9.48h-3.34V700zM888.4 700h3.33v9.48h-3.33V700zM898.87 700h3.33v9.48h-3.33V700zM857.02 770.52h3.33V780h-3.33v-9.48zM867.47 770.52h3.33V780h-3.33v-9.48zM877.93 770.52h3.34V780h-3.34v-9.48zM888.4 770.52h3.33V780h-3.33v-9.48zM898.87 770.52h3.33V780h-3.33v-9.48zM910.52 717.42H920v3.33h-9.48v-3.33zM910.52 727.87H920v3.33h-9.48v-3.33zM910.52 738.33H920v3.34h-9.48v-3.34zM910.52 748.8H920v3.33h-9.48v-3.33zM910.52 759.25H920v3.33h-9.48v-3.33zM840 717.42h9.48v3.33H840v-3.33zM840 727.87h9.48v3.33H840v-3.33zM840 738.33h9.48v3.34H840v-3.34zM840 748.8h9.48v3.33H840v-3.33zM840 759.25h9.48v3.33H840v-3.33z" stroke="#000" stroke-opacity="0" fill="#d86613"/><use xlink:href="#B" transform="matrix(1,0,0,1,810,789) translate(24.025 14.4)"/><use xlink:href="#C" transform="matrix(1,0,0,1,810,789) translate(48.525 36)"/><path d="M1032.18 772.18h-64.36v-64.36h64.36zm-61.02-3.34h57.68v-57.68h-57.68z" stroke="#000" stroke-opacity="0" fill="#d86613"/><path d="M977.02 700h3.33v9.48h-3.33V700zM987.47 700h3.33v9.48h-3.33V700zM997.93 700h3.34v9.48h-3.34V700zM1008.4 700h3.33v9.48h-3.33V700zM1018.87 700h3.33v9.48h-3.33V700zM977.02 770.52h3.33V780h-3.33v-9.48zM987.47 770.52h3.33V780h-3.33v-9.48zM997.93 770.52h3.34V780h-3.34v-9.48zM1008.4 770.52h3.33V780h-3.33v-9.48zM1018.87 770.52h3.33V780h-3.33v-9.48zM1030.52 717.42h9.48v3.33h-9.48v-3.33zM1030.52 727.87h9.48v3.33h-9.48v-3.33zM1030.52 738.33h9.48v3.34h-9.48v-3.34zM1030.52 748.8h9.48v3.33h-9.48v-3.33zM1030.52 759.25h9.48v3.33h-9.48v-3.33zM960 717.42h9.48v3.33H960v-3.33zM960 727.87h9.48v3.33H960v-3.33zM960 738.33h9.48v3.34H960v-3.34zM960 748.8h9.48v3.33H960v-3.33zM960 759.25h9.48v3.33H960v-3.33z" stroke="#000" stroke-opacity="0" fill="#d86613"/><use xlink:href="#B" transform="matrix(1,0,0,1,930,789) translate(24.025 14.4)"/><use xlink:href="#C" transform="matrix(1,0,0,1,930,789) translate(48.525 36)"/><path d="M1152.18 772.18h-64.36v-64.36h64.36zm-61.02-3.34h57.68v-57.68h-57.68z" stroke="#000" stroke-opacity="0" fill="#d86613"/><path d="M1097.02 700h3.33v9.48h-3.33V700zM1107.47 700h3.33v9.48h-3.33V700zM1117.93 700h3.34v9.48h-3.34V700zM1128.4 700h3.33v9.48h-3.33V700zM1138.87 700h3.33v9.48h-3.33V700zM1097.02 770.52h3.33V780h-3.33v-9.48zM1107.47 770.52h3.33V780h-3.33v-9.48zM1117.93 770.52h3.34V780h-3.34v-9.48zM1128.4 770.52h3.33V780h-3.33v-9.48zM1138.87 770.52h3.33V780h-3.33v-9.48zM1150.52 717.42h9.48v3.33h-9.48v-3.33zM1150.52 727.87h9.48v3.33h-9.48v-3.33zM1150.52 738.33h9.48v3.34h-9.48v-3.34zM1150.52 748.8h9.48v3.33h-9.48v-3.33zM1150.52 759.25h9.48v3.33h-9.48v-3.33zM1080 717.42h9.48v3.33H1080v-3.33zM1080 727.87h9.48v3.33H1080v-3.33zM1080 738.33h9.48v3.34H1080v-3.34zM1080 748.8h9.48v3.33H1080v-3.33zM1080 759.25h9.48v3.33H1080v-3.33z" stroke="#000" stroke-opacity="0" fill="#d86613"/><use xlink:href="#D" transform="matrix(1,0,0,1,1050,789) translate(62.5 14.4)"/><path d="M552.18 1052.18h-64.36v-64.36h64.36zm-61.02-3.34h57.68v-57.68h-57.68z" stroke="#000" stroke-opacity="0" fill="#d86613"/><path d="M497.02 980h3.33v9.48h-3.33V980zM507.47 980h3.33v9.48h-3.33V980zM517.93 980h3.34v9.48h-3.34V980zM528.4 980h3.33v9.48h-3.33V980zM538.87 980h3.33v9.48h-3.33V980zM497.02 1050.52h3.33v9.48h-3.33v-9.48zM507.47 1050.52h3.33v9.48h-3.33v-9.48zM517.93 1050.52h3.34v9.48h-3.34v-9.48zM528.4 1050.52h3.33v9.48h-3.33v-9.48zM538.87 1050.52h3.33v9.48h-3.33v-9.48zM550.52 997.42H560v3.33h-9.48v-3.33zM550.52 1007.87H560v3.33h-9.48v-3.33zM550.52 1018.33H560v3.34h-9.48v-3.34zM550.52 1028.8H560v3.33h-9.48v-3.33zM550.52 1039.25H560v3.33h-9.48v-3.33zM480 997.42h9.48v3.33H480v-3.33zM480 1007.87h9.48v3.33H480v-3.33zM480 1018.33h9.48v3.34H480v-3.34zM480 1028.8h9.48v3.33H480v-3.33zM480 1039.25h9.48v3.33H480v-3.33z" stroke="#000" stroke-opacity="0" fill="#d86613"/><use xlink:href="#E" transform="matrix(1,0,0,1,450,1069) translate(47 14.4)"/><path d="M672.18 1052.18h-64.36v-64.36h64.36zm-61.02-3.34h57.68v-57.68h-57.68z" stroke="#000" stroke-opacity="0" fill="#d86613"/><path d="M617.02 980h3.33v9.48h-3.33V980zM627.47 980h3.33v9.48h-3.33V980zM637.93 980h3.34v9.48h-3.34V980zM648.4 980h3.33v9.48h-3.33V980zM658.87 980h3.33v9.48h-3.33V980zM617.02 1050.52h3.33v9.48h-3.33v-9.48zM627.47 1050.52h3.33v9.48h-3.33v-9.48zM637.93 1050.52h3.34v9.48h-3.34v-9.48zM648.4 1050.52h3.33v9.48h-3.33v-9.48zM658.87 1050.52h3.33v9.48h-3.33v-9.48zM670.52 997.42H680v3.33h-9.48v-3.33zM670.52 1007.87H680v3.33h-9.48v-3.33zM670.52 1018.33H680v3.34h-9.48v-3.34zM670.52 1028.8H680v3.33h-9.48v-3.33zM670.52 1039.25H680v3.33h-9.48v-3.33zM600 997.42h9.48v3.33H600v-3.33zM600 1007.87h9.48v3.33H600v-3.33zM600 1018.33h9.48v3.34H600v-3.34zM600 1028.8h9.48v3.33H600v-3.33zM600 1039.25h9.48v3.33H600v-3.33z" stroke="#000" stroke-opacity="0" fill="#d86613"/><use xlink:href="#E" transform="matrix(1,0,0,1,570,1069) translate(47 14.4)"/><path d="M792.18 1052.18h-64.36v-64.36h64.36zm-61.02-3.34h57.68v-57.68h-57.68z" stroke="#000" stroke-opacity="0" fill="#d86613"/><path d="M737.02 980h3.33v9.48h-3.33V980zM747.47 980h3.33v9.48h-3.33V980zM757.93 980h3.34v9.48h-3.34V980zM768.4 980h3.33v9.48h-3.33V980zM778.87 980h3.33v9.48h-3.33V980zM737.02 1050.52h3.33v9.48h-3.33v-9.48zM747.47 1050.52h3.33v9.48h-3.33v-9.48zM757.93 1050.52h3.34v9.48h-3.34v-9.48zM768.4 1050.52h3.33v9.48h-3.33v-9.48zM778.87 1050.52h3.33v9.48h-3.33v-9.48zM790.52 997.42H800v3.33h-9.48v-3.33zM790.52 1007.87H800v3.33h-9.48v-3.33zM790.52 1018.33H800v3.34h-9.48v-3.34zM790.52 1028.8H800v3.33h-9.48v-3.33zM790.52 1039.25H800v3.33h-9.48v-3.33zM720 997.42h9.48v3.33H720v-3.33zM720 1007.87h9.48v3.33H720v-3.33zM720 1018.33h9.48v3.34H720v-3.34zM720 1028.8h9.48v3.33H720v-3.33zM720 1039.25h9.48v3.33H720v-3.33z" stroke="#000" stroke-opacity="0" fill="#d86613"/><use xlink:href="#E" transform="matrix(1,0,0,1,690,1069) translate(47 14.4)"/><path d="M912.18 1052.18h-64.36v-64.36h64.36zm-61.02-3.34h57.68v-57.68h-57.68z" stroke="#000" stroke-opacity="0" fill="#d86613"/><path d="M857.02 980h3.33v9.48h-3.33V980zM867.47 980h3.33v9.48h-3.33V980zM877.93 980h3.34v9.48h-3.34V980zM888.4 980h3.33v9.48h-3.33V980zM898.87 980h3.33v9.48h-3.33V980zM857.02 1050.52h3.33v9.48h-3.33v-9.48zM867.47 1050.52h3.33v9.48h-3.33v-9.48zM877.93 1050.52h3.34v9.48h-3.34v-9.48zM888.4 1050.52h3.33v9.48h-3.33v-9.48zM898.87 1050.52h3.33v9.48h-3.33v-9.48zM910.52 997.42H920v3.33h-9.48v-3.33zM910.52 1007.87H920v3.33h-9.48v-3.33zM910.52 1018.33H920v3.34h-9.48v-3.34zM910.52 1028.8H920v3.33h-9.48v-3.33zM910.52 1039.25H920v3.33h-9.48v-3.33zM840 997.42h9.48v3.33H840v-3.33zM840 1007.87h9.48v3.33H840v-3.33zM840 1018.33h9.48v3.34H840v-3.34zM840 1028.8h9.48v3.33H840v-3.33zM840 1039.25h9.48v3.33H840v-3.33z" stroke="#000" stroke-opacity="0" fill="#d86613"/><use xlink:href="#D" transform="matrix(1,0,0,1,810,1069) translate(62.5 14.4)"/><path d="M552.18 1332.18h-64.36v-64.36h64.36zm-61.02-3.34h57.68v-57.68h-57.68z" stroke="#000" stroke-opacity="0" fill="#d86613"/><path d="M497.02 1260h3.33v9.48h-3.33V1260zM507.47 1260h3.33v9.48h-3.33V1260zM517.93 1260h3.34v9.48h-3.34V1260zM528.4 1260h3.33v9.48h-3.33V1260zM538.87 1260h3.33v9.48h-3.33V1260zM497.02 1330.52h3.33v9.48h-3.33v-9.48zM507.47 1330.52h3.33v9.48h-3.33v-9.48zM517.93 1330.52h3.34v9.48h-3.34v-9.48zM528.4 1330.52h3.33v9.48h-3.33v-9.48zM538.87 1330.52h3.33v9.48h-3.33v-9.48zM550.52 1277.42H560v3.33h-9.48v-3.33zM550.52 1287.87H560v3.33h-9.48v-3.33zM550.52 1298.33H560v3.34h-9.48v-3.34zM550.52 1308.8H560v3.33h-9.48v-3.33zM550.52 1319.25H560v3.33h-9.48v-3.33zM480 1277.42h9.48v3.33H480v-3.33zM480 1287.87h9.48v3.33H480v-3.33zM480 1298.33h9.48v3.34H480v-3.34zM480 1308.8h9.48v3.33H480v-3.33zM480 1319.25h9.48v3.33H480v-3.33z" stroke="#000" stroke-opacity="0" fill="#d86613"/><use xlink:href="#D" transform="matrix(1,0,0,1,450,1349) translate(62.5 14.4)"/><path d="M672.18 1332.18h-64.36v-64.36h64.36zm-61.02-3.34h57.68v-57.68h-57.68z" stroke="#000" stroke-opacity="0" fill="#d86613"/><path d="M617.02 1260h3.33v9.48h-3.33V1260zM627.47 1260h3.33v9.48h-3.33V1260zM637.93 1260h3.34v9.48h-3.34V1260zM648.4 1260h3.33v9.48h-3.33V1260zM658.87 1260h3.33v9.48h-3.33V1260zM617.02 1330.52h3.33v9.48h-3.33v-9.48zM627.47 1330.52h3.33v9.48h-3.33v-9.48zM637.93 1330.52h3.34v9.48h-3.34v-9.48zM648.4 1330.52h3.33v9.48h-3.33v-9.48zM658.87 1330.52h3.33v9.48h-3.33v-9.48zM670.52 1277.42H680v3.33h-9.48v-3.33zM670.52 1287.87H680v3.33h-9.48v-3.33zM670.52 1298.33H680v3.34h-9.48v-3.34zM670.52 1308.8H680v3.33h-9.48v-3.33zM670.52 1319.25H680v3.33h-9.48v-3.33zM600 1277.42h9.48v3.33H600v-3.33zM600 1287.87h9.48v3.33H600v-3.33zM600 1298.33h9.48v3.34H600v-3.34zM600 1308.8h9.48v3.33H600v-3.33zM600 1319.25h9.48v3.33H600v-3.33z" stroke="#000" stroke-opacity="0" fill="#d86613"/><use xlink:href="#D" transform="matrix(1,0,0,1,570,1349) translate(62.5 14.4)"/><path d="M792.18 1332.18h-64.36v-64.36h64.36zm-61.02-3.34h57.68v-57.68h-57.68z" stroke="#000" stroke-opacity="0" fill="#d86613"/><path d="M737.02 1260h3.33v9.48h-3.33V1260zM747.47 1260h3.33v9.48h-3.33V1260zM757.93 1260h3.34v9.48h-3.34V1260zM768.4 1260h3.33v9.48h-3.33V1260zM778.87 1260h3.33v9.48h-3.33V1260zM737.02 1330.52h3.33v9.48h-3.33v-9.48zM747.47 1330.52h3.33v9.48h-3.33v-9.48zM757.93 1330.52h3.34v9.48h-3.34v-9.48zM768.4 1330.52h3.33v9.48h-3.33v-9.48zM778.87 1330.52h3.33v9.48h-3.33v-9.48zM790.52 1277.42H800v3.33h-9.48v-3.33zM790.52 1287.87H800v3.33h-9.48v-3.33zM790.52 1298.33H800v3.34h-9.48v-3.34zM790.52 1308.8H800v3.33h-9.48v-3.33zM790.52 1319.25H800v3.33h-9.48v-3.33zM720 1277.42h9.48v3.33H720v-3.33zM720 1287.87h9.48v3.33H720v-3.33zM720 1298.33h9.48v3.34H720v-3.34zM720 1308.8h9.48v3.33H720v-3.33zM720 1319.25h9.48v3.33H720v-3.33z" stroke="#000" stroke-opacity="0" fill="#d86613"/><use xlink:href="#D" transform="matrix(1,0,0,1,690,1349) translate(62.5 14.4)"/><path d="M522.86 1880v-80H260v-279.3h80.5" stroke="#000" stroke-width="2" fill="none"/><path d="M523.86 1880.58l-1-.58h1z"/><path d="M355.76 1520.7l-14.26 4.62v-9.27z" stroke="#000" stroke-width="2"/><path d="M1493.05 881.5V734" stroke="#000" stroke-width="2" fill="none"/><path d="M1493.05 896.76l-4.64-14.26h9.28zM1493.05 718.74l4.63 14.26h-9.27z" stroke="#000" stroke-width="2"/><path d="M520 961.5v-13.75h906" stroke="#000" stroke-width="2" fill="none"/><path d="M520 976.76l-4.64-14.26h9.28zM1441.26 947.75L1427 952.4v-9.3z" stroke="#000" stroke-width="2"/><path d="M640 961.5v-13.75h786" stroke="#000" stroke-width="2" fill="none"/><path d="M640 976.76l-4.64-14.26h9.28zM1441.26 947.75L1427 952.4v-9.3z" stroke="#000" stroke-width="2"/><path d="M760 961.5v-13.75h666" stroke="#000" stroke-width="2" fill="none"/><path d="M760 976.76l-4.64-14.26h9.28zM1441.26 947.75L1427 952.4v-9.3z" stroke="#000" stroke-width="2"/><path d="M880 961.5v-13.75h546" stroke="#000" stroke-width="2" fill="none"/><path d="M880 976.76l-4.64-14.26h9.28zM1441.26 947.75L1427 952.4v-9.3z" stroke="#000" stroke-width="2"/><path d="M1120 681.5v-16.62h306" stroke="#000" stroke-width="2" fill="none"/><path d="M1120 696.76l-4.64-14.26h9.28zM1441.26 664.88L1427 669.5v-9.26z" stroke="#000" stroke-width="2"/><path d="M1000 681.5v-16.62h426" stroke="#000" stroke-width="2" fill="none"/><path d="M1000 696.76l-4.64-14.26h9.28zM1441.26 664.88L1427 669.5v-9.26z" stroke="#000" stroke-width="2"/><path d="M880 681.5v-16.62h546" stroke="#000" stroke-width="2" fill="none"/><path d="M880 696.76l-4.64-14.26h9.28zM1441.26 664.88L1427 669.5v-9.26z" stroke="#000" stroke-width="2"/><path d="M760 681.5v-16.62h666" stroke="#000" stroke-width="2" fill="none"/><path d="M760 696.76l-4.64-14.26h9.28zM1441.26 664.88L1427 669.5v-9.26z" stroke="#000" stroke-width="2"/><path d="M640 681.5v-16.62h786" stroke="#000" stroke-width="2" fill="none"/><path d="M640 696.76l-4.64-14.26h9.28zM1441.26 664.88L1427 669.5v-9.26z" stroke="#000" stroke-width="2"/><path d="M520 681.5v-16.62h906" stroke="#000" stroke-width="2" fill="none"/><path d="M520 696.76l-4.64-14.26h9.28zM1441.26 664.88L1427 669.5v-9.26z" stroke="#000" stroke-width="2"/><path d="M520 401.5v-13.75h906" stroke="#000" stroke-width="2" fill="none"/><path d="M520 416.76l-4.64-14.26h9.28zM1441.26 387.75L1427 392.4v-9.3z" stroke="#000" stroke-width="2"/><path d="M1493.05 454v147.5" stroke="#000" stroke-width="2" fill="none"/><path d="M1493.05 438.74l4.63 14.26h-9.27zM1493.05 616.76l-4.64-14.26h9.28z" stroke="#000" stroke-width="2"/><path d="M1492.25 1014v147.5" stroke="#000" stroke-width="2" fill="none"/><path d="M1492.25 998.74l4.64 14.26h-9.3zM1492.25 1176.76l-4.64-14.26h9.3z" stroke="#000" stroke-width="2"/><path d="M760 1241.5v-13.75h666" stroke="#000" stroke-width="2" fill="none"/><path d="M760 1256.76l-4.64-14.26h9.28zM1441.26 1227.75l-14.26 4.64v-9.3z" stroke="#000" stroke-width="2"/><path d="M640 1241.5v-13.75h786" stroke="#000" stroke-width="2" fill="none"/><path d="M640 1256.76l-4.64-14.26h9.28zM1441.26 1227.75l-14.26 4.64v-9.3z" stroke="#000" stroke-width="2"/><path d="M520 1241.5v-13.75h906" stroke="#000" stroke-width="2" fill="none"/><path d="M520 1256.76l-4.64-14.26h9.28zM1441.26 1227.75l-14.26 4.64v-9.3z" stroke="#000" stroke-width="2"/><g filter="url(#n)"><path d="M1486.2 121.7h92.1v92.1h-92.1z" stroke="#000" stroke-opacity="0" fill="#d6242d"/><path d="M1576.66 123.34v88.82h-88.82v-88.82h88.82M1580 120h-95.5v95.5h95.5V120z" stroke="#000" stroke-opacity="0" fill="#fff"/><path d="M1532.8 201.46c-24.4 0-24.7-28.64-24.7-28.9v-27.18c0-.47.3-.87.74-1.06l23.58-9.1c.24-.05.54-.05.8 0l23.57 9.1c.43.2.73.6.73 1.06v28.83c0 .28-.3 27.26-24.72 27.26zm-22.48-55.3v26.4c.2 4.83 1.1 8.94 2.92 13.45 3.7 8.76 10.28 13.2 19.57 13.2 9.26 0 15.93-4.17 19.64-12.33 1.83-4.24 2.67-8.08 2.86-12.66v-28.1l-22.5-8.6z" stroke="#000" stroke-opacity="0" fill="#fff"/><path d="M1532.8 194.7c-5.92 0-10.96-3.37-14.44-9.86-1.73-3.17-2.77-6.07-3.53-9.56v-25.5c0-.48.3-.85.72-1.06l16.83-6.7c.3-.17.58-.17.86 0l16.83 6.7c.43.2.72.58.72 1.05v25.5c-.73 3.5-1.8 6.4-3.5 9.57-3.52 6.5-8.55 9.87-14.5 9.87zm-15.7-19.74c.25 1.38 3.8 17.48 15.7 17.48 11.92 0 15.48-16.1 15.73-17.48V150.5l-15.72-6.27-15.7 6.28z" stroke="#000" stroke-opacity="0" fill="#fff"/><path d="M1531.7 143.03h2.24v50.56h-2.25z" stroke="#000" stroke-opacity="0" fill="#fff"/><use xlink:href="#o" transform="matrix(1,0,0,1,1454.5,224.5) translate(18.074999999999996 14.4)"/><use xlink:href="#c" transform="matrix(1,0,0,1,1454.5,224.5) translate(87.975 14.4)"/></g><g filter="url(#F)"><path d="M1488.25-318c0-1.1.9-2 2-2h84c1.1 0 2 .9 2 2v124c0 1.1-.9 2-2 2h-84c-1.1 0-2-.9-2-2z" fill="#fff"/><path d="M1544.25-279c2.5 0 4.6-.88 6.36-2.64 1.77-1.75 2.65-3.87 2.65-6.36 0-2.5-.88-4.6-2.64-6.36-1.74-1.76-3.86-2.64-6.35-2.64-2.5 0-4.6.88-6.36 2.64-1.77 1.75-2.65 3.87-2.65 6.36 0 2.5.88 4.6 2.64 6.36 1.74 1.76 3.86 2.64 6.35 2.64zm-24 0c2.5 0 4.6-.88 6.36-2.64 1.77-1.75 2.65-3.87 2.65-6.36 0-2.5-.88-4.6-2.64-6.36-1.74-1.76-3.86-2.64-6.35-2.64-2.5 0-4.6.88-6.36 2.64-1.77 1.75-2.65 3.87-2.65 6.36 0 2.5.88 4.6 2.64 6.36 1.74 1.76 3.86 2.64 6.35 2.64zm0 6c-7 0-21 3.5-21 10.5v7.5h42v-7.5c0-7-14-10.5-21-10.5zm24 0c-.87 0-1.86.06-2.9.15 3.47 2.52 5.9 5.9 5.9 10.35v7.5h18v-7.5c0-7-14-10.5-21-10.5zm0 0" fill="#757575"/><use xlink:href="#G" transform="matrix(1,0,0,1,1488.25,-239) translate(27.0134736328125 28.05751953125)"/></g><path d="M1532.25-192v155.5h-.58v137" stroke="#000" stroke-width="2" fill="none"/><path/><path d="M1531.67 115.76l-4.64-14.26h9.27z" stroke="#000" stroke-width="2"/><path d="M1484.5 167.75h-40V300h47.77v21.5" stroke="#000" stroke-width="2" fill="none"/><path d="M1487.5 168.75h-1.3v-2h1.3z"/><path d="M1492.27 336.76l-4.64-14.26h9.27z" stroke="#000" stroke-width="2"/><path d="M440-40h580V82H440z" stroke="#000" stroke-opacity="0" stroke-width="2" fill="#fff" fill-opacity="0"/><use xlink:href="#j" transform="matrix(1,0,0,1,445,-35) translate(0 60.94444444444444)"/><use xlink:href="#H" transform="matrix(1,0,0,1,445,-35) translate(98.70370370370371 60.94444444444444)"/><path d="M1040 1660h580v122h-580z" stroke="#000" stroke-opacity="0" stroke-width="2" fill="#fff" fill-opacity="0"/><use xlink:href="#I" transform="matrix(1,0,0,1,1045,1665) translate(0 47.611111111111114)"/><use xlink:href="#J" transform="matrix(1,0,0,1,1045,1665) translate(14.814814814814813 47.611111111111114)"/><use xlink:href="#K" transform="matrix(1,0,0,1,1045,1665) translate(87.59259259259258 47.611111111111114)"/><use xlink:href="#L" transform="matrix(1,0,0,1,1045,1665) translate(135.679012345679 47.611111111111114)"/><use xlink:href="#M" transform="matrix(1,0,0,1,1045,1665) translate(157.8395061728395 47.611111111111114)"/><use xlink:href="#N" transform="matrix(1,0,0,1,1045,1665) translate(212.16049382716048 47.611111111111114)"/><use xlink:href="#O" transform="matrix(1,0,0,1,1045,1665) translate(244.19753086419752 47.611111111111114)"/><use xlink:href="#P" transform="matrix(1,0,0,1,1045,1665) translate(275.0617283950617 47.611111111111114)"/><use xlink:href="#Q" transform="matrix(1,0,0,1,1045,1665) translate(365.0617283950617 47.611111111111114)"/><use xlink:href="#R" transform="matrix(1,0,0,1,1045,1665) translate(408.2716049382716 47.611111111111114)"/><use xlink:href="#S" transform="matrix(1,0,0,1,1045,1665) translate(450.2469135802469 47.611111111111114)"/><use xlink:href="#T" transform="matrix(1,0,0,1,1045,1665) translate(481.1111111111111 47.611111111111114)"/><use xlink:href="#U" transform="matrix(1,0,0,1,1045,1665) translate(523.0864197530864 47.611111111111114)"/><use xlink:href="#V" transform="matrix(1,0,0,1,1045,1665) translate(0 74.27777777777777)"/><use xlink:href="#Q" transform="matrix(1,0,0,1,1045,1665) translate(48.14814814814815 74.27777777777777)"/><use xlink:href="#W" transform="matrix(1,0,0,1,1045,1665) translate(91.35802469135803 74.27777777777777)"/><use xlink:href="#X" transform="matrix(1,0,0,1,1045,1665) translate(164.19753086419752 74.27777777777777)"/><use xlink:href="#Y" transform="matrix(1,0,0,1,1045,1665) translate(249.32098765432096 74.27777777777777)"/><path d="M460 1060v-40h20" stroke="#000" stroke-width="2" fill="none"/><path/><path/><path d="M580 1060v-40h20" stroke="#000" stroke-width="2" fill="none"/><path/><path/><path d="M700 1060v-40h20" stroke="#000" stroke-width="2" fill="none"/><path/><path/><path d="M820 1060v-40h20" stroke="#000" stroke-width="2" fill="none"/><path/><path/><path d="M440 1060h40v40h-40v-40z" stroke="#000" stroke-opacity="0" stroke-width="2" fill="#3f8624"/><path d="M466.4 1073.8c-.02-.07-.05-.12-.06-.2-.47-1.45-3.43-2.2-6.34-2.2-2.92 0-5.86.75-6.34 2.2l-.05.2V1085.93c0 1.72 3.2 2.6 6.4 2.6s6.42-.88 6.42-2.6V1074c0-.1-.02-.14-.03-.2zm-6.4-1.34c3.04 0 4.85.8 5.24 1.35-.4.54-2.22 1.35-5.25 1.35-3.06 0-4.88-.8-5.27-1.34.4-.53 2.22-1.34 5.27-1.34zm5.3 13.45c0 .56-1.87 1.57-5.3 1.57-3.47 0-5.35-1.03-5.35-1.56v-10.78c1.22.72 3.28 1.1 5.34 1.1 2.04 0 4.1-.38 5.3-1.1z" stroke="#000" stroke-opacity="0" stroke-width="2" fill="#fff"/><path d="M453.66 1073.6l-.04.2v-.2zM466.4 1073.6v.2c0-.07-.03-.13-.05-.2zM452.38 1071.62l-.76.76-3.9-3.9v2.98h-1.05v-4.26c0-.3.24-.53.53-.53h4.26v1.06h-2.97zM473.33 1067.2v4.26h-1.06v-2.97l-3.9 3.88-.75-.76 3.9-3.9h-2.98v-1.05h4.26c.3 0 .53.24.53.53zM448.5 1092.27h2.96v1.06h-4.26c-.3 0-.53-.24-.53-.53v-4.26h1.06v2.97l3.9-3.88.75.76zM473.33 1088.54v4.26c0 .3-.24.53-.53.53h-4.26v-1.06h2.97l-3.88-3.9.76-.75 3.9 3.9v-2.98z" stroke="#000" stroke-opacity="0" stroke-width="2" fill="#fff"/><g><use xlink:href="#Z" transform="matrix(1,0,0,1,410,1109) translate(27.796296296296298 13.166666666666668)"/></g><path d="M560 1060h40v40h-40v-40z" stroke="#000" stroke-opacity="0" stroke-width="2" fill="#3f8624"/><path d="M586.4 1073.8c-.02-.07-.05-.12-.06-.2-.47-1.45-3.43-2.2-6.34-2.2-2.92 0-5.86.75-6.34 2.2l-.05.2V1085.93c0 1.72 3.2 2.6 6.4 2.6s6.42-.88 6.42-2.6V1074c0-.1-.02-.14-.03-.2zm-6.4-1.34c3.04 0 4.85.8 5.24 1.35-.4.54-2.22 1.35-5.25 1.35-3.06 0-4.88-.8-5.27-1.34.4-.53 2.22-1.34 5.27-1.34zm5.3 13.45c0 .56-1.87 1.57-5.3 1.57-3.47 0-5.35-1.03-5.35-1.56v-10.78c1.22.72 3.28 1.1 5.34 1.1 2.04 0 4.1-.38 5.3-1.1z" stroke="#000" stroke-opacity="0" stroke-width="2" fill="#fff"/><path d="M573.66 1073.6l-.04.2v-.2zM586.4 1073.6v.2c0-.07-.03-.13-.05-.2zM572.38 1071.62l-.76.76-3.9-3.9v2.98h-1.05v-4.26c0-.3.24-.53.53-.53h4.26v1.06h-2.97zM593.33 1067.2v4.26h-1.06v-2.97l-3.9 3.88-.75-.76 3.9-3.9h-2.98v-1.05h4.26c.3 0 .53.24.53.53zM568.5 1092.27h2.96v1.06h-4.26c-.3 0-.53-.24-.53-.53v-4.26h1.06v2.97l3.9-3.88.75.76zM593.33 1088.54v4.26c0 .3-.24.53-.53.53h-4.26v-1.06h2.97l-3.88-3.9.76-.75 3.9 3.9v-2.98z" stroke="#000" stroke-opacity="0" stroke-width="2" fill="#fff"/><g><use xlink:href="#Z" transform="matrix(1,0,0,1,530,1109) translate(27.796296296296298 13.166666666666668)"/></g><path d="M680 1060h40v40h-40v-40z" stroke="#000" stroke-opacity="0" stroke-width="2" fill="#3f8624"/><path d="M706.4 1073.8c-.02-.07-.05-.12-.06-.2-.47-1.45-3.43-2.2-6.34-2.2-2.92 0-5.86.75-6.34 2.2l-.05.2V1085.93c0 1.72 3.2 2.6 6.4 2.6s6.42-.88 6.42-2.6V1074c0-.1-.02-.14-.03-.2zm-6.4-1.34c3.04 0 4.85.8 5.24 1.35-.4.54-2.22 1.35-5.25 1.35-3.06 0-4.88-.8-5.27-1.34.4-.53 2.22-1.34 5.27-1.34zm5.3 13.45c0 .56-1.87 1.57-5.3 1.57-3.47 0-5.35-1.03-5.35-1.56v-10.78c1.22.72 3.28 1.1 5.34 1.1 2.04 0 4.1-.38 5.3-1.1z" stroke="#000" stroke-opacity="0" stroke-width="2" fill="#fff"/><path d="M693.66 1073.6l-.04.2v-.2zM706.4 1073.6v.2c0-.07-.03-.13-.05-.2zM692.38 1071.62l-.76.76-3.9-3.9v2.98h-1.05v-4.26c0-.3.24-.53.53-.53h4.26v1.06h-2.97zM713.33 1067.2v4.26h-1.06v-2.97l-3.9 3.88-.75-.76 3.9-3.9h-2.98v-1.05h4.26c.3 0 .53.24.53.53zM688.5 1092.27h2.96v1.06h-4.26c-.3 0-.53-.24-.53-.53v-4.26h1.06v2.97l3.9-3.88.75.76zM713.33 1088.54v4.26c0 .3-.24.53-.53.53h-4.26v-1.06h2.97l-3.88-3.9.76-.75 3.9 3.9v-2.98z" stroke="#000" stroke-opacity="0" stroke-width="2" fill="#fff"/><g><use xlink:href="#Z" transform="matrix(1,0,0,1,650,1109) translate(27.796296296296298 13.166666666666668)"/></g><path d="M800 1060h40v40h-40v-40z" stroke="#000" stroke-opacity="0" stroke-width="2" fill="#3f8624"/><path d="M826.4 1073.8c-.02-.07-.05-.12-.06-.2-.47-1.45-3.43-2.2-6.34-2.2-2.92 0-5.86.75-6.34 2.2l-.05.2V1085.93c0 1.72 3.2 2.6 6.4 2.6s6.42-.88 6.42-2.6V1074c0-.1-.02-.14-.03-.2zm-6.4-1.34c3.04 0 4.85.8 5.24 1.35-.4.54-2.22 1.35-5.25 1.35-3.06 0-4.88-.8-5.27-1.34.4-.53 2.22-1.34 5.27-1.34zm5.3 13.45c0 .56-1.87 1.57-5.3 1.57-3.47 0-5.35-1.03-5.35-1.56v-10.78c1.22.72 3.28 1.1 5.34 1.1 2.04 0 4.1-.38 5.3-1.1z" stroke="#000" stroke-opacity="0" stroke-width="2" fill="#fff"/><path d="M813.66 1073.6l-.04.2v-.2zM826.4 1073.6v.2c0-.07-.03-.13-.05-.2zM812.38 1071.62l-.76.76-3.9-3.9v2.98h-1.05v-4.26c0-.3.24-.53.53-.53h4.26v1.06h-2.97zM833.33 1067.2v4.26h-1.06v-2.97l-3.9 3.88-.75-.76 3.9-3.9h-2.98v-1.05h4.26c.3 0 .53.24.53.53zM808.5 1092.27h2.96v1.06h-4.26c-.3 0-.53-.24-.53-.53v-4.26h1.06v2.97l3.9-3.88.75.76zM833.33 1088.54v4.26c0 .3-.24.53-.53.53h-4.26v-1.06h2.97l-3.88-3.9.76-.75 3.9 3.9v-2.98z" stroke="#000" stroke-opacity="0" stroke-width="2" fill="#fff"/><g><use xlink:href="#Z" transform="matrix(1,0,0,1,770,1109) translate(27.796296296296298 13.166666666666668)"/></g><defs><path d="M205 0l-28-72H64L36 0H1l101-248h38L239 0h-34zm-38-99l-47-123c-12 45-31 82-46 123h93" id="aa"/><path d="M266 0h-40l-56-210L115 0H75L2-248h35L96-30l15-64 43-154h32l59 218 59-218h35" id="ab"/><path d="M185-189c-5-48-123-54-124 2 14 75 158 14 163 119 3 78-121 87-175 55-17-10-28-26-33-46l33-7c5 56 141 63 141-1 0-78-155-14-162-118-5-82 145-84 179-34 5 7 8 16 11 25" id="ac"/><g id="a"><use transform="matrix(0.05,0,0,0.05,0,0)" xlink:href="#aa"/><use transform="matrix(0.05,0,0,0.05,11.35,0)" xlink:href="#ab"/><use transform="matrix(0.05,0,0,0.05,28.299999999999997,0)" xlink:href="#ac"/></g><path d="M233-177c-1 41-23 64-60 70L243 0h-38l-65-103H63V0H30v-248c88 3 205-21 203 71zM63-129c60-2 137 13 137-47 0-61-80-42-137-45v92" id="ad"/><path d="M100-194c63 0 86 42 84 106H49c0 40 14 67 53 68 26 1 43-12 49-29l28 8c-11 28-37 45-77 45C44 4 14-33 15-96c1-61 26-98 85-98zm52 81c6-60-76-77-97-28-3 7-6 17-6 28h103" id="ae"/><path d="M135-143c-3-34-86-38-87 0 15 53 115 12 119 90S17 21 10-45l28-5c4 36 97 45 98 0-10-56-113-15-118-90-4-57 82-63 122-42 12 7 21 19 24 35" id="af"/><path d="M100-194c62-1 85 37 85 99 1 63-27 99-86 99S16-35 15-95c0-66 28-99 85-99zM99-20c44 1 53-31 53-75 0-43-8-75-51-75s-53 32-53 75 10 74 51 75" id="ag"/><path d="M84 4C-5 8 30-112 23-190h32v120c0 31 7 50 39 49 72-2 45-101 50-169h31l1 190h-30c-1-10 1-25-2-33-11 22-28 36-60 37" id="ah"/><path d="M114-163C36-179 61-72 57 0H25l-1-190h30c1 12-1 29 2 39 6-27 23-49 58-41v29" id="ai"/><path d="M96-169c-40 0-48 33-48 73s9 75 48 75c24 0 41-14 43-38l32 2c-6 37-31 61-74 61-59 0-76-41-82-99-10-93 101-131 147-64 4 7 5 14 7 22l-32 3c-4-21-16-35-41-35" id="aj"/><g id="b"><use transform="matrix(0.05,0,0,0.05,0,0)" xlink:href="#ad"/><use transform="matrix(0.05,0,0,0.05,12.950000000000001,0)" xlink:href="#ae"/><use transform="matrix(0.05,0,0,0.05,22.950000000000003,0)" xlink:href="#af"/><use transform="matrix(0.05,0,0,0.05,31.950000000000003,0)" xlink:href="#ag"/><use transform="matrix(0.05,0,0,0.05,41.95,0)" xlink:href="#ah"/><use transform="matrix(0.05,0,0,0.05,51.95,0)" xlink:href="#ai"/><use transform="matrix(0.05,0,0,0.05,57.900000000000006,0)" xlink:href="#aj"/><use transform="matrix(0.05,0,0,0.05,66.9,0)" xlink:href="#ae"/></g><path d="M143 4C61 4 22-44 18-125c-5-107 100-154 193-111 17 8 29 25 37 43l-32 9c-13-25-37-40-76-40-61 0-88 39-88 99 0 61 29 100 91 101 35 0 62-11 79-27v-45h-74v-28h105v86C228-13 192 4 143 4" id="ak"/><path d="M115-194c55 1 70 41 70 98S169 2 115 4C84 4 66-9 55-30l1 105H24l-1-265h31l2 30c10-21 28-34 59-34zm-8 174c40 0 45-34 45-75s-6-73-45-74c-42 0-51 32-51 76 0 43 10 73 51 73" id="al"/><g id="c"><use transform="matrix(0.05,0,0,0.05,0,0)" xlink:href="#ak"/><use transform="matrix(0.05,0,0,0.05,14,0)" xlink:href="#ai"/><use transform="matrix(0.05,0,0,0.05,19.95,0)" xlink:href="#ag"/><use transform="matrix(0.05,0,0,0.05,29.950000000000003,0)" xlink:href="#ah"/><use transform="matrix(0.05,0,0,0.05,39.95,0)" xlink:href="#al"/></g><path d="M140-251c81 0 123 46 123 126C263-46 219 4 140 4 59 4 17-45 17-125s42-126 123-126zm0 227c63 0 89-41 89-101s-29-99-89-99c-61 0-89 39-89 99S79-25 140-24" id="am"/><g id="d"><use transform="matrix(0.05,0,0,0.05,0,0)" xlink:href="#am"/><use transform="matrix(0.05,0,0,0.05,14,0)" xlink:href="#al"/><use transform="matrix(0.05,0,0,0.05,24,0)" xlink:href="#af"/></g><path d="M194 0L95-120 63-95V0H30v-248h33v124l119-124h40L117-140 236 0h-42" id="an"/><path d="M115-194c53 0 69 39 70 98 0 66-23 100-70 100C84 3 66-7 56-30L54 0H23l1-261h32v101c10-23 28-34 59-34zm-8 174c40 0 45-34 45-75 0-40-5-75-45-74-42 0-51 32-51 76 0 43 10 73 51 73" id="ao"/><path d="M117-194c89-4 53 116 60 194h-32v-121c0-31-8-49-39-48C34-167 62-67 57 0H25l-1-190h30c1 10-1 24 2 32 11-22 29-35 61-36" id="ap"/><path d="M59-47c-2 24 18 29 38 22v24C64 9 27 4 27-40v-127H5v-23h24l9-43h21v43h35v23H59v120" id="aq"/><g id="e"><use transform="matrix(0.05,0,0,0.05,0,0)" xlink:href="#an"/><use transform="matrix(0.05,0,0,0.05,12,0)" xlink:href="#ah"/><use transform="matrix(0.05,0,0,0.05,22,0)" xlink:href="#ao"/><use transform="matrix(0.05,0,0,0.05,32,0)" xlink:href="#ae"/><use transform="matrix(0.05,0,0,0.05,42,0)" xlink:href="#ai"/><use transform="matrix(0.05,0,0,0.05,47.95,0)" xlink:href="#ap"/><use transform="matrix(0.05,0,0,0.05,57.95,0)" xlink:href="#ae"/><use transform="matrix(0.05,0,0,0.05,67.95,0)" xlink:href="#aq"/><use transform="matrix(0.05,0,0,0.05,72.95,0)" xlink:href="#ae"/><use transform="matrix(0.05,0,0,0.05,82.95,0)" xlink:href="#af"/></g><path d="M68-38c1 34 0 65-14 84H32c9-13 17-26 17-46H33v-38h35" id="ar"/><g id="f"><use transform="matrix(0.05,0,0,0.05,0,0)" xlink:href="#af"/><use transform="matrix(0.05,0,0,0.05,9,0)" xlink:href="#ah"/><use transform="matrix(0.05,0,0,0.05,19,0)" xlink:href="#ao"/><use transform="matrix(0.05,0,0,0.05,29,0)" xlink:href="#ap"/><use transform="matrix(0.05,0,0,0.05,39,0)" xlink:href="#ae"/><use transform="matrix(0.05,0,0,0.05,49,0)" xlink:href="#aq"/><use transform="matrix(0.05,0,0,0.05,54,0)" xlink:href="#ar"/></g><path d="M27 0v-27h64v-190l-56 39v-29l58-41h29v221h61V0H27" id="as"/><path d="M101-251c68 0 85 55 85 127S166 4 100 4C33 4 14-52 14-124c0-73 17-127 87-127zm-1 229c47 0 54-49 54-102s-4-102-53-102c-51 0-55 48-55 102 0 53 5 102 54 102" id="at"/><path d="M33 0v-38h34V0H33" id="au"/><path d="M101-251c82-7 93 87 43 132L82-64C71-53 59-42 53-27h129V0H18c2-99 128-94 128-182 0-28-16-43-45-43s-46 15-49 41l-32-3c6-41 34-60 81-64" id="av"/><path d="M0 4l72-265h28L28 4H0" id="aw"/><path d="M155-56V0h-30v-56H8v-25l114-167h33v167h35v25h-35zm-30-156c-27 46-58 90-88 131h88v-131" id="ax"/><path d="M80-196l47-18 7 23-49 13 32 44-20 13-27-46-27 45-21-12 33-44-49-13 8-23 47 19-2-53h23" id="ay"/><g id="g"><use transform="matrix(0.05,0,0,0.05,0,0)" xlink:href="#as"/><use transform="matrix(0.05,0,0,0.05,10,0)" xlink:href="#at"/><use transform="matrix(0.05,0,0,0.05,20,0)" xlink:href="#au"/><use transform="matrix(0.05,0,0,0.05,25,0)" xlink:href="#as"/><use transform="matrix(0.05,0,0,0.05,35,0)" xlink:href="#au"/><use transform="matrix(0.05,0,0,0.05,40,0)" xlink:href="#av"/><use transform="matrix(0.05,0,0,0.05,50,0)" xlink:href="#au"/><use transform="matrix(0.05,0,0,0.05,55,0)" xlink:href="#at"/><use transform="matrix(0.05,0,0,0.05,65,0)" xlink:href="#aw"/><use transform="matrix(0.05,0,0,0.05,70,0)" xlink:href="#av"/><use transform="matrix(0.05,0,0,0.05,80,0)" xlink:href="#ax"/><use transform="matrix(0.05,0,0,0.05,90,0)" xlink:href="#ay"/></g><path d="M210-169c-67 3-38 105-44 169h-31v-121c0-29-5-50-35-48C34-165 62-65 56 0H25l-1-190h30c1 10-1 24 2 32 10-44 99-50 107 0 11-21 27-35 58-36 85-2 47 119 55 194h-31v-121c0-29-5-49-35-48" id="az"/><path d="M141-36C126-15 110 5 73 4 37 3 15-17 15-53c-1-64 63-63 125-63 3-35-9-54-41-54-24 1-41 7-42 31l-33-3c5-37 33-52 76-52 45 0 72 20 72 64v82c-1 20 7 32 28 27v20c-31 9-61-2-59-35zM48-53c0 20 12 33 32 33 41-3 63-29 60-74-43 2-92-5-92 41" id="aA"/><path d="M9 0v-24l116-142H16v-24h144v24L44-24h123V0H9" id="aB"/><g id="h"><use transform="matrix(0.05,0,0,0.05,0,0)" xlink:href="#aa"/><use transform="matrix(0.05,0,0,0.05,12,0)" xlink:href="#az"/><use transform="matrix(0.05,0,0,0.05,26.950000000000003,0)" xlink:href="#aA"/><use transform="matrix(0.05,0,0,0.05,36.95,0)" xlink:href="#aB"/><use transform="matrix(0.05,0,0,0.05,45.95,0)" xlink:href="#ag"/><use transform="matrix(0.05,0,0,0.05,55.95,0)" xlink:href="#ap"/></g><path d="M137 0h-34L2-248h35l83 218 83-218h36" id="aC"/><path d="M30-248c87 1 191-15 191 75 0 78-77 80-158 76V0H30v-248zm33 125c57 0 124 11 124-50 0-59-68-47-124-48v98" id="aD"/><path d="M212-179c-10-28-35-45-73-45-59 0-87 40-87 99 0 60 29 101 89 101 43 0 62-24 78-52l27 14C228-24 195 4 139 4 59 4 22-46 18-125c-6-104 99-153 187-111 19 9 31 26 39 46" id="aE"/><g id="i"><use transform="matrix(0.05,0,0,0.05,0,0)" xlink:href="#aC"/><use transform="matrix(0.05,0,0,0.05,12,0)" xlink:href="#aD"/><use transform="matrix(0.05,0,0,0.05,24,0)" xlink:href="#aE"/></g><path d="M30 0v-248h187v28H63v79h144v27H63v87h162V0H30" id="aF"/><path d="M24-231v-30h32v30H24zM24 0v-190h32V0H24" id="aG"/><path d="M106-169C34-169 62-67 57 0H25v-261h32l-1 103c12-21 28-36 61-36 89 0 53 116 60 194h-32v-121c2-32-8-49-39-48" id="aH"/><path d="M179-190L93 31C79 59 56 82 12 73V49c39 6 53-20 64-50L1-190h34L92-34l54-156h33" id="aI"/><g id="j"><use transform="matrix(0.06172839506172839,0,0,0.06172839506172839,0,0)" xlink:href="#aF"/><use transform="matrix(0.06172839506172839,0,0,0.06172839506172839,14.814814814814813,0)" xlink:href="#al"/><use transform="matrix(0.06172839506172839,0,0,0.06172839506172839,27.160493827160494,0)" xlink:href="#aG"/><use transform="matrix(0.06172839506172839,0,0,0.06172839506172839,32.03703703703704,0)" xlink:href="#al"/><use transform="matrix(0.06172839506172839,0,0,0.06172839506172839,44.382716049382715,0)" xlink:href="#aH"/><use transform="matrix(0.06172839506172839,0,0,0.06172839506172839,56.72839506172839,0)" xlink:href="#aA"/><use transform="matrix(0.06172839506172839,0,0,0.06172839506172839,69.07407407407408,0)" xlink:href="#ap"/><use transform="matrix(0.06172839506172839,0,0,0.06172839506172839,81.41975308641976,0)" xlink:href="#aI"/></g><path d="M24 0v-261h32V0H24" id="aJ"/><g id="k"><use transform="matrix(0.06172839506172839,0,0,0.06172839506172839,0,0)" xlink:href="#aj"/><use transform="matrix(0.06172839506172839,0,0,0.06172839506172839,11.11111111111111,0)" xlink:href="#aJ"/><use transform="matrix(0.06172839506172839,0,0,0.06172839506172839,15.987654320987653,0)" xlink:href="#ah"/><use transform="matrix(0.06172839506172839,0,0,0.06172839506172839,28.333333333333332,0)" xlink:href="#af"/><use transform="matrix(0.06172839506172839,0,0,0.06172839506172839,39.44444444444444,0)" xlink:href="#aq"/><use transform="matrix(0.06172839506172839,0,0,0.06172839506172839,45.617283950617285,0)" xlink:href="#ae"/><use transform="matrix(0.06172839506172839,0,0,0.06172839506172839,57.96296296296296,0)" xlink:href="#ai"/></g><path d="M190 0L58-211 59 0H30v-248h39L202-35l-2-213h31V0h-41" id="aK"/><path d="M127-220V0H93v-220H8v-28h204v28h-85" id="aL"/><g id="l"><use transform="matrix(0.06172839506172839,0,0,0.06172839506172839,0,0)" xlink:href="#aC"/><use transform="matrix(0.06172839506172839,0,0,0.06172839506172839,14.814814814814813,0)" xlink:href="#aK"/><use transform="matrix(0.06172839506172839,0,0,0.06172839506172839,30.80246913580247,0)" xlink:href="#aF"/><use transform="matrix(0.06172839506172839,0,0,0.06172839506172839,45.61728395061728,0)" xlink:href="#aL"/></g><g id="m"><use transform="matrix(0.06172839506172839,0,0,0.06172839506172839,0,0)" xlink:href="#as"/><use transform="matrix(0.06172839506172839,0,0,0.06172839506172839,12.345679012345679,0)" xlink:href="#at"/><use transform="matrix(0.06172839506172839,0,0,0.06172839506172839,24.691358024691358,0)" xlink:href="#au"/><use transform="matrix(0.06172839506172839,0,0,0.06172839506172839,30.864197530864196,0)" xlink:href="#as"/><use transform="matrix(0.06172839506172839,0,0,0.06172839506172839,43.20987654320987,0)" xlink:href="#au"/><use transform="matrix(0.06172839506172839,0,0,0.06172839506172839,49.382716049382715,0)" xlink:href="#at"/><use transform="matrix(0.06172839506172839,0,0,0.06172839506172839,61.72839506172839,0)" xlink:href="#au"/><use transform="matrix(0.06172839506172839,0,0,0.06172839506172839,67.90123456790123,0)" xlink:href="#at"/><use transform="matrix(0.06172839506172839,0,0,0.06172839506172839,80.24691358024691,0)" xlink:href="#aw"/><use transform="matrix(0.06172839506172839,0,0,0.06172839506172839,86.41975308641975,0)" xlink:href="#av"/><use transform="matrix(0.06172839506172839,0,0,0.06172839506172839,98.76543209876543,0)" xlink:href="#av"/><use transform="matrix(0.06172839506172839,0,0,0.06172839506172839,111.11111111111111,0)" xlink:href="#ay"/></g><g id="o"><use transform="matrix(0.05,0,0,0.05,0,0)" xlink:href="#ac"/><use transform="matrix(0.05,0,0,0.05,12,0)" xlink:href="#ae"/><use transform="matrix(0.05,0,0,0.05,22,0)" xlink:href="#aj"/><use transform="matrix(0.05,0,0,0.05,31,0)" xlink:href="#ah"/><use transform="matrix(0.05,0,0,0.05,41,0)" xlink:href="#ai"/><use transform="matrix(0.05,0,0,0.05,46.95,0)" xlink:href="#aG"/><use transform="matrix(0.05,0,0,0.05,50.900000000000006,0)" xlink:href="#aq"/><use transform="matrix(0.05,0,0,0.05,55.900000000000006,0)" xlink:href="#aI"/></g><filter id="n" filterUnits="objectBoundingBox" x="-.07" y="-.05" width="1.15" height="1.15"><feOffset result="offOut" in="SourceAlpha" dy="2"/><feGaussianBlur result="blurOut" in="offOut" stdDeviation="3.5"/><feColorMatrix result="colorOut" in="blurOut" values="0 0 0 0 0 0 0 0 0 0 0 0 0 0 0 0 0 0 0.5019607843137255 0"/><feBlend in="SourceGraphic" in2="colorOut"/></filter><path d="M101-234c-31-9-42 10-38 44h38v23H63V0H32v-167H5v-23h27c-7-52 17-82 69-68v24" id="aM"/><path d="M143 0L79-87 56-68V0H24v-261h32v163l83-92h37l-77 82L181 0h-38" id="aN"/><g id="p"><use transform="matrix(0.05,0,0,0.05,0,0)" xlink:href="#an"/><use transform="matrix(0.05,0,0,0.05,12,0)" xlink:href="#aA"/><use transform="matrix(0.05,0,0,0.05,22,0)" xlink:href="#aM"/><use transform="matrix(0.05,0,0,0.05,27,0)" xlink:href="#aN"/><use transform="matrix(0.05,0,0,0.05,36,0)" xlink:href="#aA"/></g><g id="q"><use transform="matrix(0.05,0,0,0.05,0,0)" xlink:href="#ac"/><use transform="matrix(0.05,0,0,0.05,12,0)" xlink:href="#ah"/><use transform="matrix(0.05,0,0,0.05,22,0)" xlink:href="#ao"/><use transform="matrix(0.05,0,0,0.05,32,0)" xlink:href="#ap"/><use transform="matrix(0.05,0,0,0.05,42,0)" xlink:href="#ae"/><use transform="matrix(0.05,0,0,0.05,52,0)" xlink:href="#aq"/><use transform="matrix(0.05,0,0,0.05,57,0)" xlink:href="#ar"/></g><path d="M126-127c33 6 58 20 58 59 0 88-139 92-164 29-3-8-5-16-6-25l32-3c6 27 21 44 54 44 32 0 52-15 52-46 0-38-36-46-79-43v-28c39 1 72-4 72-42 0-27-17-43-46-43-28 0-47 15-49 41l-32-3c6-42 35-63 81-64 48-1 79 21 79 65 0 36-21 52-52 59" id="aO"/><g id="r"><use transform="matrix(0.05,0,0,0.05,0,0)" xlink:href="#as"/><use transform="matrix(0.05,0,0,0.05,10,0)" xlink:href="#at"/><use transform="matrix(0.05,0,0,0.05,20,0)" xlink:href="#au"/><use transform="matrix(0.05,0,0,0.05,25,0)" xlink:href="#as"/><use transform="matrix(0.05,0,0,0.05,35,0)" xlink:href="#au"/><use transform="matrix(0.05,0,0,0.05,40,0)" xlink:href="#aO"/><use transform="matrix(0.05,0,0,0.05,50,0)" xlink:href="#au"/><use transform="matrix(0.05,0,0,0.05,55,0)" xlink:href="#at"/><use transform="matrix(0.05,0,0,0.05,65,0)" xlink:href="#aw"/><use transform="matrix(0.05,0,0,0.05,70,0)" xlink:href="#av"/><use transform="matrix(0.05,0,0,0.05,80,0)" xlink:href="#ax"/><use transform="matrix(0.05,0,0,0.05,90,0)" xlink:href="#ay"/></g><g id="s"><use transform="matrix(0.05,0,0,0.05,0,0)" xlink:href="#aC"/><use transform="matrix(0.05,0,0,0.05,12,0)" xlink:href="#aD"/><use transform="matrix(0.05,0,0,0.05,24,0)" xlink:href="#aK"/></g><path d="M30 0v-248h33v221h125V0H30" id="aP"/><path d="M85-194c31 0 48 13 60 33l-1-100h32l1 261h-30c-2-10 0-23-3-31C134-8 116 4 85 4 32 4 16-35 15-94c0-66 23-100 70-100zm9 24c-40 0-46 34-46 75 0 40 6 74 45 74 42 0 51-32 51-76 0-42-9-74-50-73" id="aQ"/><g id="t"><use transform="matrix(0.05,0,0,0.05,0,0)" xlink:href="#aP"/><use transform="matrix(0.05,0,0,0.05,10,0)" xlink:href="#ag"/><use transform="matrix(0.05,0,0,0.05,20,0)" xlink:href="#aA"/><use transform="matrix(0.05,0,0,0.05,30,0)" xlink:href="#aQ"/></g><path d="M177-190C167-65 218 103 67 71c-23-6-38-20-44-43l32-5c15 47 100 32 89-28v-30C133-14 115 1 83 1 29 1 15-40 15-95c0-56 16-97 71-98 29-1 48 16 59 35 1-10 0-23 2-32h30zM94-22c36 0 50-32 50-73 0-42-14-75-50-75-39 0-46 34-46 75s6 73 46 73" id="aR"/><g id="u"><use transform="matrix(0.05,0,0,0.05,0,0)" xlink:href="#ao"/><use transform="matrix(0.05,0,0,0.05,10,0)" xlink:href="#aA"/><use transform="matrix(0.05,0,0,0.05,20,0)" xlink:href="#aJ"/><use transform="matrix(0.05,0,0,0.05,23.95,0)" xlink:href="#aA"/><use transform="matrix(0.05,0,0,0.05,33.95,0)" xlink:href="#ap"/><use transform="matrix(0.05,0,0,0.05,43.95,0)" xlink:href="#aj"/><use transform="matrix(0.05,0,0,0.05,52.95,0)" xlink:href="#aG"/><use transform="matrix(0.05,0,0,0.05,56.900000000000006,0)" xlink:href="#ap"/><use transform="matrix(0.05,0,0,0.05,66.9,0)" xlink:href="#aR"/></g><g id="v"><use transform="matrix(0.05,0,0,0.05,0,0)" xlink:href="#as"/><use transform="matrix(0.05,0,0,0.05,10,0)" xlink:href="#at"/><use transform="matrix(0.05,0,0,0.05,20,0)" xlink:href="#au"/><use transform="matrix(0.05,0,0,0.05,25,0)" xlink:href="#as"/><use transform="matrix(0.05,0,0,0.05,35,0)" xlink:href="#au"/><use transform="matrix(0.05,0,0,0.05,40,0)" xlink:href="#as"/><use transform="matrix(0.05,0,0,0.05,50,0)" xlink:href="#au"/><use transform="matrix(0.05,0,0,0.05,55,0)" xlink:href="#at"/><use transform="matrix(0.05,0,0,0.05,65,0)" xlink:href="#aw"/><use transform="matrix(0.05,0,0,0.05,70,0)" xlink:href="#av"/><use transform="matrix(0.05,0,0,0.05,80,0)" xlink:href="#ax"/><use transform="matrix(0.05,0,0,0.05,90,0)" xlink:href="#ay"/></g><g id="w"><use transform="matrix(0.05,0,0,0.05,0,0)" xlink:href="#au"/><use transform="matrix(0.05,0,0,0.05,5,0)" xlink:href="#au"/><use transform="matrix(0.05,0,0,0.05,10,0)" xlink:href="#au"/></g><path d="M195 0l-74-108L45 0H8l94-129-87-119h37l69 98 67-98h37l-84 118L233 0h-38" id="aS"/><g id="x"><use transform="matrix(0.05,0,0,0.05,0,0)" xlink:href="#as"/><use transform="matrix(0.05,0,0,0.05,10,0)" xlink:href="#at"/><use transform="matrix(0.05,0,0,0.05,20,0)" xlink:href="#au"/><use transform="matrix(0.05,0,0,0.05,25,0)" xlink:href="#as"/><use transform="matrix(0.05,0,0,0.05,35,0)" xlink:href="#au"/><use transform="matrix(0.05,0,0,0.05,40,0)" xlink:href="#aS"/><use transform="matrix(0.05,0,0,0.05,52,0)" xlink:href="#au"/><use transform="matrix(0.05,0,0,0.05,57,0)" xlink:href="#at"/><use transform="matrix(0.05,0,0,0.05,67,0)" xlink:href="#aw"/><use transform="matrix(0.05,0,0,0.05,72,0)" xlink:href="#av"/><use transform="matrix(0.05,0,0,0.05,82,0)" xlink:href="#ax"/><use transform="matrix(0.05,0,0,0.05,92,0)" xlink:href="#ay"/></g><path d="M160-131c35 5 61 23 61 61C221 17 115-2 30 0v-248c76 3 177-17 177 60 0 33-19 50-47 57zm-97-11c50-1 110 9 110-42 0-47-63-36-110-37v79zm0 115c55-2 124 14 124-45 0-56-70-42-124-44v89" id="aT"/><g id="y"><use transform="matrix(0.05,0,0,0.05,0,0)" xlink:href="#aT"/><use transform="matrix(0.05,0,0,0.05,12,0)" xlink:href="#aA"/><use transform="matrix(0.05,0,0,0.05,22,0)" xlink:href="#aJ"/><use transform="matrix(0.05,0,0,0.05,25.950000000000003,0)" xlink:href="#aA"/><use transform="matrix(0.05,0,0,0.05,35.95,0)" xlink:href="#ap"/><use transform="matrix(0.05,0,0,0.05,45.95,0)" xlink:href="#aj"/><use transform="matrix(0.05,0,0,0.05,54.95,0)" xlink:href="#ae"/><use transform="matrix(0.05,0,0,0.05,64.95,0)" xlink:href="#ai"/></g><g id="z"><use transform="matrix(0.05,0,0,0.05,0,0)" xlink:href="#an"/><use transform="matrix(0.05,0,0,0.05,12,0)" xlink:href="#ah"/><use transform="matrix(0.05,0,0,0.05,22,0)" xlink:href="#ao"/><use transform="matrix(0.05,0,0,0.05,32,0)" xlink:href="#ae"/><use transform="matrix(0.05,0,0,0.05,42,0)" xlink:href="#ai"/><use transform="matrix(0.05,0,0,0.05,47.95,0)" xlink:href="#ap"/><use transform="matrix(0.05,0,0,0.05,57.95,0)" xlink:href="#ae"/><use transform="matrix(0.05,0,0,0.05,67.95,0)" xlink:href="#aq"/><use transform="matrix(0.05,0,0,0.05,72.95,0)" xlink:href="#ae"/><use transform="matrix(0.05,0,0,0.05,82.95,0)" xlink:href="#af"/></g><path d="M240 0l2-218c-23 76-54 145-80 218h-23L58-218 59 0H30v-248h44l77 211c21-75 51-140 76-211h43V0h-30" id="aU"/><g id="A"><use transform="matrix(0.05,0,0,0.05,0,0)" xlink:href="#aU"/><use transform="matrix(0.05,0,0,0.05,14.950000000000001,0)" xlink:href="#aA"/><use transform="matrix(0.05,0,0,0.05,24.950000000000003,0)" xlink:href="#af"/><use transform="matrix(0.05,0,0,0.05,33.95,0)" xlink:href="#aq"/><use transform="matrix(0.05,0,0,0.05,38.95,0)" xlink:href="#ae"/><use transform="matrix(0.05,0,0,0.05,48.95,0)" xlink:href="#ai"/></g><g id="B"><use transform="matrix(0.05,0,0,0.05,0,0)" xlink:href="#an"/><use transform="matrix(0.05,0,0,0.05,12,0)" xlink:href="#ah"/><use transform="matrix(0.05,0,0,0.05,22,0)" xlink:href="#ao"/><use transform="matrix(0.05,0,0,0.05,32,0)" xlink:href="#ae"/><use transform="matrix(0.05,0,0,0.05,42,0)" xlink:href="#ai"/><use transform="matrix(0.05,0,0,0.05,47.95,0)" xlink:href="#ap"/><use transform="matrix(0.05,0,0,0.05,57.95,0)" xlink:href="#ae"/><use transform="matrix(0.05,0,0,0.05,67.95,0)" xlink:href="#aq"/><use transform="matrix(0.05,0,0,0.05,72.95,0)" xlink:href="#ae"/><use transform="matrix(0.05,0,0,0.05,82.95,0)" xlink:href="#af"/></g><g id="C"><use transform="matrix(0.05,0,0,0.05,0,0)" xlink:href="#aK"/><use transform="matrix(0.05,0,0,0.05,12.950000000000001,0)" xlink:href="#ag"/><use transform="matrix(0.05,0,0,0.05,22.950000000000003,0)" xlink:href="#aQ"/><use transform="matrix(0.05,0,0,0.05,32.95,0)" xlink:href="#ae"/></g><g id="D"><use transform="matrix(0.05,0,0,0.05,0,0)" xlink:href="#au"/><use transform="matrix(0.05,0,0,0.05,5,0)" xlink:href="#au"/><use transform="matrix(0.05,0,0,0.05,10,0)" xlink:href="#au"/></g><g id="E"><use transform="matrix(0.05,0,0,0.05,0,0)" xlink:href="#an"/><use transform="matrix(0.05,0,0,0.05,12,0)" xlink:href="#aA"/><use transform="matrix(0.05,0,0,0.05,22,0)" xlink:href="#aM"/><use transform="matrix(0.05,0,0,0.05,27,0)" xlink:href="#aN"/><use transform="matrix(0.05,0,0,0.05,36,0)" xlink:href="#aA"/></g><path d="M665-137c214 0 337-121 336-332v-987h193v990c-3 300-218 486-529 486-309 0-526-181-525-484v-992h190v986c-1 210 123 333 335 333" id="aV"/><path d="M538-131c121 0 232-49 232-156 0-50-20-88-56-117-73-60-334-92-420-143-92-55-162-110-162-238 0-190 192-317 400-317 223 0 414 129 413 338H759c0-108-110-186-227-186-119 0-215 53-215 159 0 45 18 78 53 101 76 52 331 90 416 139 98 57 169 115 169 251C955-92 760 20 538 20c-176 0-314-68-386-174-38-55-57-115-57-179h185c6 129 116 202 258 202" id="aW"/><path d="M599-131c141 0 220-65 285-146l113 88C906-50 770 20 589 20 281 21 93-214 93-545c0-223 93-397 233-485 74-48 154-72 240-72 300 2 449 218 445 537v77H278c0 197 129 357 321 357zm227-509c-3-180-88-310-260-310-170 0-264 140-282 310h542" id="aX"/><path d="M663-916c-163-27-288 18-338 148V0H140v-1082h180l3 125c61-97 147-145 258-145 36 0 63 5 82 14v172" id="aY"/><g id="G"><use transform="matrix(0.0065107421875,0,0,0.0065107421875,0,0)" xlink:href="#aV"/><use transform="matrix(0.0065107421875,0,0,0.0065107421875,8.646265625,0)" xlink:href="#aW"/><use transform="matrix(0.0065107421875,0,0,0.0065107421875,15.521609374999999,0)" xlink:href="#aX"/><use transform="matrix(0.0065107421875,0,0,0.0065107421875,22.5857646484375,0)" xlink:href="#aY"/><use transform="matrix(0.0065107421875,0,0,0.0065107421875,27.097708984375,0)" xlink:href="#aW"/></g><filter id="F" filterUnits="objectBoundingBox" x="-.02" y="0" width="1.03" height="1.02"><feOffset result="offOut" in="SourceAlpha" dy="1"/><feGaussianBlur result="blurOut" in="offOut" stdDeviation=".75"/><feColorMatrix result="colorOut" in="blurOut" values="0 0 0 0 0 0 0 0 0 0 0 0 0 0 0 0 0 0 0.4 0"/><feBlend in="SourceGraphic" in2="colorOut"/></filter><g id="H"><use transform="matrix(0.06172839506172839,0,0,0.06172839506172839,0,0)" xlink:href="#aj"/><use transform="matrix(0.06172839506172839,0,0,0.06172839506172839,11.11111111111111,0)" xlink:href="#aJ"/><use transform="matrix(0.06172839506172839,0,0,0.06172839506172839,15.987654320987653,0)" xlink:href="#ah"/><use transform="matrix(0.06172839506172839,0,0,0.06172839506172839,28.333333333333332,0)" xlink:href="#af"/><use transform="matrix(0.06172839506172839,0,0,0.06172839506172839,39.44444444444444,0)" xlink:href="#aq"/><use transform="matrix(0.06172839506172839,0,0,0.06172839506172839,45.617283950617285,0)" xlink:href="#ae"/><use transform="matrix(0.06172839506172839,0,0,0.06172839506172839,57.96296296296296,0)" xlink:href="#ai"/></g><use transform="matrix(0.06172839506172839,0,0,0.06172839506172839,0,0)" xlink:href="#ay" id="I"/><g id="J"><use transform="matrix(0.06172839506172839,0,0,0.06172839506172839,0,0)" xlink:href="#aA"/><use transform="matrix(0.06172839506172839,0,0,0.06172839506172839,12.345679012345679,0)" xlink:href="#aQ"/><use transform="matrix(0.06172839506172839,0,0,0.06172839506172839,24.691358024691358,0)" xlink:href="#ai"/><use transform="matrix(0.06172839506172839,0,0,0.06172839506172839,32.03703703703704,0)" xlink:href="#ae"/><use transform="matrix(0.06172839506172839,0,0,0.06172839506172839,44.382716049382715,0)" xlink:href="#af"/><use transform="matrix(0.06172839506172839,0,0,0.06172839506172839,55.49382716049382,0)" xlink:href="#af"/></g><g id="K"><use transform="matrix(0.06172839506172839,0,0,0.06172839506172839,0,0)" xlink:href="#al"/><use transform="matrix(0.06172839506172839,0,0,0.06172839506172839,12.345679012345679,0)" xlink:href="#ag"/><use transform="matrix(0.06172839506172839,0,0,0.06172839506172839,24.691358024691358,0)" xlink:href="#ag"/><use transform="matrix(0.06172839506172839,0,0,0.06172839506172839,37.03703703703704,0)" xlink:href="#aJ"/></g><g id="L"><use transform="matrix(0.06172839506172839,0,0,0.06172839506172839,0,0)" xlink:href="#aG"/><use transform="matrix(0.06172839506172839,0,0,0.06172839506172839,4.876543209876543,0)" xlink:href="#af"/></g><g id="M"><use transform="matrix(0.06172839506172839,0,0,0.06172839506172839,0,0)" xlink:href="#ah"/><use transform="matrix(0.06172839506172839,0,0,0.06172839506172839,12.345679012345679,0)" xlink:href="#af"/><use transform="matrix(0.06172839506172839,0,0,0.06172839506172839,23.45679012345679,0)" xlink:href="#ae"/><use transform="matrix(0.06172839506172839,0,0,0.06172839506172839,35.80246913580247,0)" xlink:href="#aQ"/></g><g id="N"><use transform="matrix(0.06172839506172839,0,0,0.06172839506172839,0,0)" xlink:href="#aM"/><use transform="matrix(0.06172839506172839,0,0,0.06172839506172839,6.172839506172839,0)" xlink:href="#ag"/><use transform="matrix(0.06172839506172839,0,0,0.06172839506172839,18.51851851851852,0)" xlink:href="#ai"/></g><g id="O"><use transform="matrix(0.06172839506172839,0,0,0.06172839506172839,0,0)" xlink:href="#aA"/><use transform="matrix(0.06172839506172839,0,0,0.06172839506172839,12.345679012345679,0)" xlink:href="#ap"/></g><path d="M141 0L90-78 38 0H4l68-98-65-92h35l48 74 47-74h35l-64 92 68 98h-35" id="aZ"/><g id="P"><use transform="matrix(0.06172839506172839,0,0,0.06172839506172839,0,0)" xlink:href="#ae"/><use transform="matrix(0.06172839506172839,0,0,0.06172839506172839,12.345679012345679,0)" xlink:href="#aZ"/><use transform="matrix(0.06172839506172839,0,0,0.06172839506172839,23.45679012345679,0)" xlink:href="#aA"/><use transform="matrix(0.06172839506172839,0,0,0.06172839506172839,35.80246913580247,0)" xlink:href="#az"/><use transform="matrix(0.06172839506172839,0,0,0.06172839506172839,54.25925925925925,0)" xlink:href="#al"/><use transform="matrix(0.06172839506172839,0,0,0.06172839506172839,66.60493827160494,0)" xlink:href="#aJ"/><use transform="matrix(0.06172839506172839,0,0,0.06172839506172839,71.48148148148148,0)" xlink:href="#ae"/></g><g id="Q"><use transform="matrix(0.06172839506172839,0,0,0.06172839506172839,0,0)" xlink:href="#aA"/><use transform="matrix(0.06172839506172839,0,0,0.06172839506172839,12.345679012345679,0)" xlink:href="#ap"/><use transform="matrix(0.06172839506172839,0,0,0.06172839506172839,24.691358024691358,0)" xlink:href="#aQ"/></g><g id="R"><use transform="matrix(0.06172839506172839,0,0,0.06172839506172839,0,0)" xlink:href="#aj"/><use transform="matrix(0.06172839506172839,0,0,0.06172839506172839,11.11111111111111,0)" xlink:href="#aA"/><use transform="matrix(0.06172839506172839,0,0,0.06172839506172839,23.45679012345679,0)" xlink:href="#ap"/></g><g id="S"><use transform="matrix(0.06172839506172839,0,0,0.06172839506172839,0,0)" xlink:href="#ao"/><use transform="matrix(0.06172839506172839,0,0,0.06172839506172839,12.345679012345679,0)" xlink:href="#ae"/></g><g id="T"><use transform="matrix(0.06172839506172839,0,0,0.06172839506172839,0,0)" xlink:href="#aA"/><use transform="matrix(0.06172839506172839,0,0,0.06172839506172839,12.345679012345679,0)" xlink:href="#ap"/><use transform="matrix(0.06172839506172839,0,0,0.06172839506172839,24.691358024691358,0)" xlink:href="#aI"/></g><path d="M108 0H70L1-190h34L89-25l56-165h34" id="ba"/><g id="U"><use transform="matrix(0.06172839506172839,0,0,0.06172839506172839,0,0)" xlink:href="#ba"/><use transform="matrix(0.06172839506172839,0,0,0.06172839506172839,11.11111111111111,0)" xlink:href="#aA"/><use transform="matrix(0.06172839506172839,0,0,0.06172839506172839,23.45679012345679,0)" xlink:href="#aJ"/><use transform="matrix(0.06172839506172839,0,0,0.06172839506172839,28.333333333333336,0)" xlink:href="#aG"/><use transform="matrix(0.06172839506172839,0,0,0.06172839506172839,33.20987654320988,0)" xlink:href="#aQ"/></g><g id="V"><use transform="matrix(0.06172839506172839,0,0,0.06172839506172839,0,0)" xlink:href="#ba"/><use transform="matrix(0.06172839506172839,0,0,0.06172839506172839,11.11111111111111,0)" xlink:href="#ap"/><use transform="matrix(0.06172839506172839,0,0,0.06172839506172839,23.45679012345679,0)" xlink:href="#ae"/><use transform="matrix(0.06172839506172839,0,0,0.06172839506172839,35.80246913580247,0)" xlink:href="#aq"/></g><g id="W"><use transform="matrix(0.06172839506172839,0,0,0.06172839506172839,0,0)" xlink:href="#af"/><use transform="matrix(0.06172839506172839,0,0,0.06172839506172839,11.11111111111111,0)" xlink:href="#ah"/><use transform="matrix(0.06172839506172839,0,0,0.06172839506172839,23.45679012345679,0)" xlink:href="#ao"/><use transform="matrix(0.06172839506172839,0,0,0.06172839506172839,35.80246913580247,0)" xlink:href="#ap"/><use transform="matrix(0.06172839506172839,0,0,0.06172839506172839,48.148148148148145,0)" xlink:href="#ae"/><use transform="matrix(0.06172839506172839,0,0,0.06172839506172839,60.49382716049382,0)" xlink:href="#aq"/></g><g id="X"><use transform="matrix(0.06172839506172839,0,0,0.06172839506172839,0,0)" xlink:href="#aA"/><use transform="matrix(0.06172839506172839,0,0,0.06172839506172839,12.345679012345679,0)" xlink:href="#aQ"/><use transform="matrix(0.06172839506172839,0,0,0.06172839506172839,24.691358024691358,0)" xlink:href="#aQ"/><use transform="matrix(0.06172839506172839,0,0,0.06172839506172839,37.03703703703704,0)" xlink:href="#ai"/><use transform="matrix(0.06172839506172839,0,0,0.06172839506172839,44.382716049382715,0)" xlink:href="#ae"/><use transform="matrix(0.06172839506172839,0,0,0.06172839506172839,56.72839506172839,0)" xlink:href="#af"/><use transform="matrix(0.06172839506172839,0,0,0.06172839506172839,67.8395061728395,0)" xlink:href="#af"/></g><g id="Y"><use transform="matrix(0.06172839506172839,0,0,0.06172839506172839,0,0)" xlink:href="#al"/><use transform="matrix(0.06172839506172839,0,0,0.06172839506172839,12.345679012345679,0)" xlink:href="#ag"/><use transform="matrix(0.06172839506172839,0,0,0.06172839506172839,24.691358024691358,0)" xlink:href="#ag"/><use transform="matrix(0.06172839506172839,0,0,0.06172839506172839,37.03703703703704,0)" xlink:href="#aJ"/></g><g id="Z"><use transform="matrix(0.03703703703703704,0,0,0.03703703703703704,0,0)" xlink:href="#af"/><use transform="matrix(0.03703703703703704,0,0,0.03703703703703704,6.666666666666668,0)" xlink:href="#aq"/><use transform="matrix(0.03703703703703704,0,0,0.03703703703703704,10.370370370370372,0)" xlink:href="#ag"/><use transform="matrix(0.03703703703703704,0,0,0.03703703703703704,17.77777777777778,0)" xlink:href="#ai"/><use transform="matrix(0.03703703703703704,0,0,0.03703703703703704,22.185185185185187,0)" xlink:href="#aA"/><use transform="matrix(0.03703703703703704,0,0,0.03703703703703704,29.592592592592595,0)" xlink:href="#aR"/><use transform="matrix(0.03703703703703704,0,0,0.03703703703703704,37,0)" xlink:href="#ae"/></g></defs></g></svg>