<?xml version="1.0" encoding="utf-8"?>
<!-- Generator: Adobe Illustrator 26.0.1, SVG Export Plug-In . SVG Version: 6.00 Build 0)  -->
<svg version="1.1"
	 id="svg13826" xmlns:cc="http://creativecommons.org/ns#" xmlns:dc="http://purl.org/dc/elements/1.1/" xmlns:inkscape="http://www.inkscape.org/namespaces/inkscape" xmlns:rdf="http://www.w3.org/1999/02/22-rdf-syntax-ns#" xmlns:sodipodi="http://sodipodi.sourceforge.net/DTD/sodipodi-0.dtd" xmlns:svg="http://www.w3.org/2000/svg"
	 xmlns="http://www.w3.org/2000/svg" xmlns:xlink="http://www.w3.org/1999/xlink" x="0px" y="0px" viewBox="0 0 51.1 49.6"
	 style="enable-background:new 0 0 51.1 49.6;" xml:space="preserve">
<style type="text/css">
	.st0{fill:#FFFFFF;}
</style>
<sodipodi:namedview  bordercolor="#666666" borderopacity="1.0" fit-margin-bottom="0" fit-margin-left="0" fit-margin-right="0" fit-margin-top="0" id="base" inkscape:current-layer="layer1" inkscape:cx="-2.090004" inkscape:cy="33.752239" inkscape:document-units="mm" inkscape:pageopacity="0.0" inkscape:pageshadow="2" inkscape:window-height="775" inkscape:window-maximized="1" inkscape:window-width="1440" inkscape:window-x="0" inkscape:window-y="1" inkscape:zoom="8" pagecolor="#ffffff" showgrid="false">
	</sodipodi:namedview>
<g id="layer1" transform="translate(-0.99262638,-1.174181)" inkscape:groupmode="layer" inkscape:label="Calque 1">
	<g id="g70" transform="matrix(1.0148887,0,0,1.0148887,16.902146,-2.698726)">
		
			<path id="path3055" inkscape:connector-curvature="0" inkscape:export-filename="new.png" inkscape:export-xdpi="250.55" inkscape:export-ydpi="250.55" d="
			M9.3,5.1c-0.4,0-0.8,0.1-1.2,0.3l-16.6,7.9c-0.9,0.4-1.5,1.2-1.7,2.1l-4.1,17.8c-0.2,0.8,0,1.7,0.4,2.4c0.1,0.1,0.1,0.2,0.2,0.3
			l11.5,14.3c0.6,0.7,1.5,1.2,2.5,1.2l18.4,0c1,0,1.9-0.4,2.5-1.2l11.5-14.3c0.6-0.7,0.8-1.7,0.6-2.7l-4.1-17.8
			c-0.2-0.9-0.8-1.7-1.7-2.1L10.9,5.4C10.4,5.2,9.9,5.1,9.3,5.1z"/>
		<path id="path3054-2-9" inkscape:connector-curvature="0" d="M9.3,3.8C8.9,3.8,8.5,4,8.1,4.1l-17.5,8.4c-0.9,0.4-1.6,1.3-1.8,2.3
			l-4.3,18.8c-0.2,0.9,0,1.8,0.5,2.5c0.1,0.1,0.1,0.2,0.2,0.3l12.1,15.1c0.6,0.8,1.6,1.2,2.6,1.2l19.4,0c1,0,2-0.5,2.6-1.2L34,36.4
			c0.6-0.8,0.9-1.8,0.6-2.8l-4.3-18.8c-0.2-1-0.9-1.8-1.8-2.3L11,4.1C10.5,3.9,9.9,3.8,9.3,3.8z M9.3,5.1c0.5,0,1.1,0.1,1.5,0.3
			l16.6,7.9c0.9,0.4,1.5,1.2,1.7,2.1l4.1,17.8c0.2,0.9,0,1.9-0.6,2.7L21.2,50.2c-0.6,0.7-1.5,1.2-2.5,1.2l-18.4,0
			c-1,0-1.9-0.4-2.5-1.2l-11.5-14.3c-0.1-0.1-0.1-0.2-0.2-0.3c-0.5-0.7-0.6-1.6-0.4-2.4l4.1-17.8c0.2-0.9,0.8-1.7,1.7-2.1L8.1,5.4
			C8.5,5.2,8.9,5.1,9.3,5.1L9.3,5.1z"/>
	</g>
	<g id="g3345" transform="translate(0.30405635,1.0923112)">
		<rect id="rect8971" x="14.2" y="30.7" class="st0" width="6.2" height="6.1"/>
		<rect id="rect8973" x="23.1" y="30.7" class="st0" width="6.2" height="6.1"/>
		<rect id="rect8975" x="32.1" y="30.7" class="st0" width="6.2" height="6.1"/>
		<rect id="rect8977" x="32.1" y="21.8" class="st0" width="6.2" height="6.1"/>
		<rect id="rect8979" x="23.2" y="21.8" class="st0" width="6.2" height="6.1"/>
		<rect id="rect8981" x="14.3" y="21.8" class="st0" width="6.2" height="6.1"/>
		<rect id="rect8983" x="32.1" y="13" class="st0" width="6.2" height="6.1"/>
	</g>
</g>
</svg>
